<svg width="24" height="24" viewBox="0 0 24 24" fill="none" xmlns="http://www.w3.org/2000/svg">
<path d="M12 21.1191C16.9043 21.1191 20.9648 17.0498 20.9648 12.1543C20.9648 7.25 16.8955 3.18945 11.9912 3.18945C7.0957 3.18945 3.03516 7.25 3.03516 12.1543C3.03516 17.0498 7.10449 21.1191 12 21.1191ZM12 15.1426C9.35449 15.1426 7.32422 16.0918 6.42773 17.1465C5.25 15.8193 4.53809 14.0791 4.53809 12.1543C4.53809 8.00586 7.84277 4.68359 11.9912 4.68359C16.1396 4.68359 19.4619 8.00586 19.4707 12.1543C19.4795 14.0791 18.7588 15.8281 17.5723 17.1465C16.6846 16.0918 14.6455 15.1426 12 15.1426ZM12 13.6484C13.6963 13.666 15.0146 12.2246 15.0146 10.335C15.0146 8.55957 13.6875 7.0918 12 7.0918C10.3125 7.0918 8.97656 8.55957 8.98535 10.335C8.99414 12.2246 10.3125 13.6309 12 13.6484Z" fill="#D38E4E"/>
</svg>
