<svg width="24" height="24" viewBox="0 0 24 24" fill="none" xmlns="http://www.w3.org/2000/svg">
<path fill-rule="evenodd" clip-rule="evenodd" d="M2.3584 11.8809C2.01562 11.3887 2.17383 10.958 2.80664 10.958H4.0459C4.85449 6.84473 8.52832 3.68945 12.8525 3.68945C17.748 3.68945 21.8174 7.75 21.8174 12.6543C21.8174 17.5498 17.748 21.6191 12.8525 21.6191C9.89062 21.6191 7.27148 20.1074 5.60156 17.8662C5.30273 17.4795 5.39941 16.9961 5.75098 16.7764C6.12012 16.5566 6.5332 16.6709 6.80566 17.0312C8.15039 18.9033 10.3477 20.1162 12.8525 20.125C17.001 20.1426 20.3232 16.8027 20.3232 12.6543C20.3232 8.50586 17.001 5.19238 12.8525 5.19238C9.28418 5.19238 6.33105 7.63574 5.56641 10.958H6.84082C7.46484 10.958 7.62305 11.3887 7.28906 11.8721L5.32031 14.6758C5.03906 15.0713 4.61719 15.0801 4.32715 14.6758L2.3584 11.8809Z" fill="#3A3A3A" fill-opacity="0.8"/>
<path d="M10.6172 17.3818H15.3779C16.1689 17.3818 16.5596 16.9863 16.5596 16.1221V12.4941C16.5596 11.7275 16.2471 11.332 15.6074 11.2588V10.1846C15.6074 8.2998 14.3232 7.3916 12.9951 7.3916C11.6719 7.3916 10.3828 8.2998 10.3828 10.1846V11.2588C9.74805 11.332 9.43555 11.7275 9.43555 12.4941V16.1221C9.43555 16.9863 9.82617 17.3818 10.6172 17.3818ZM11.5596 10.1064C11.5596 9.10059 12.1943 8.52441 12.9951 8.52441C13.8008 8.52441 14.4355 9.10059 14.4355 10.1064V11.2441H11.5596V10.1064ZM10.959 16.2637C10.7637 16.2637 10.666 16.1709 10.666 15.9365V12.6846C10.666 12.4502 10.7637 12.3623 10.959 12.3623H15.041C15.2363 12.3623 15.3291 12.4502 15.3291 12.6846V15.9365C15.3291 16.1709 15.2363 16.2637 15.041 16.2637H10.959Z" fill="#3A3A3A" fill-opacity="0.8"/>
</svg>
