<svg width="24" height="24" viewBox="0 0 24 24" fill="none" xmlns="http://www.w3.org/2000/svg">
<path d="M11.8242 21.7686C11.9648 21.7686 12.1934 21.7158 12.4131 21.5928C17.4141 18.7891 19.1279 17.6025 19.1279 14.3945V7.6709C19.1279 6.74805 18.7324 6.45801 17.9854 6.1416C16.9482 5.71094 13.5996 4.50684 12.5625 4.14648C12.3252 4.06738 12.0703 4.01465 11.8242 4.01465C11.5781 4.01465 11.3232 4.08496 11.0947 4.14648C10.0576 4.44531 6.7002 5.71973 5.66309 6.1416C4.9248 6.44922 4.52051 6.74805 4.52051 7.6709V14.3945C4.52051 17.6025 6.24316 18.7803 11.2354 21.5928C11.4639 21.7158 11.6836 21.7686 11.8242 21.7686ZM11.8242 20.1777C11.6836 20.1777 11.543 20.125 11.2793 19.9668C7.21875 17.5059 5.91797 16.7852 5.91797 14.0693V7.94336C5.91797 7.64453 5.9707 7.53027 6.2168 7.43359C7.55273 6.90625 10.1455 6.03613 11.4727 5.50879C11.6133 5.44727 11.7275 5.42969 11.8242 5.42969C11.9209 5.42969 12.0352 5.45605 12.1758 5.50879C13.5029 6.03613 16.0781 6.96777 17.4404 7.43359C17.6777 7.52148 17.7305 7.64453 17.7305 7.94336V14.0693C17.7305 16.7852 16.4297 17.4971 12.3691 19.9668C12.1143 20.125 11.9648 20.1777 11.8242 20.1777ZM10.8662 16.6357C11.1562 16.6357 11.4023 16.4951 11.5781 16.2314L15.5947 9.90332C15.7002 9.73633 15.8057 9.54297 15.8057 9.34082C15.8057 8.9541 15.4541 8.69922 15.0938 8.69922C14.8652 8.69922 14.6455 8.83105 14.4785 9.09473L10.8311 14.9482L9.09961 12.707C8.88867 12.4258 8.69531 12.3467 8.45801 12.3467C8.07129 12.3467 7.77246 12.6543 7.77246 13.0498C7.77246 13.2344 7.85156 13.4277 7.97461 13.5947L10.1191 16.2314C10.3389 16.5215 10.5762 16.6357 10.8662 16.6357Z" fill="#3A3A3A" fill-opacity="0.8"/>
</svg>
