<svg width="24" height="24" viewBox="0 0 24 24" fill="none" xmlns="http://www.w3.org/2000/svg">
<path d="M12 20.8213C17.0273 20.8213 21.167 16.6816 21.167 11.6543C21.167 6.63574 17.0186 2.4873 11.9912 2.4873C6.97266 2.4873 2.83301 6.63574 2.83301 11.6543C2.83301 16.6816 6.97266 20.8213 12 20.8213ZM11.0244 16.0225C10.6641 16.0225 10.3828 15.8643 10.1191 15.5391L8.00098 12.9902C7.8252 12.7705 7.74609 12.5596 7.74609 12.3223C7.74609 11.8301 8.13281 11.4346 8.625 11.4346C8.91504 11.4346 9.14355 11.5488 9.37207 11.8301L10.998 13.8691L14.54 8.20898C14.751 7.88379 15.0146 7.70801 15.3223 7.70801C15.7969 7.70801 16.2363 8.05078 16.2363 8.54297C16.2363 8.75391 16.1309 8.99121 15.999 9.19336L11.8945 15.5303C11.6836 15.8467 11.376 16.0225 11.0244 16.0225Z" fill="#8BC34A"/>
</svg>
