<svg width="24" height="24" viewBox="0 0 24 24" fill="none" xmlns="http://www.w3.org/2000/svg">
<path d="M12 20.8213C17.0273 20.8213 21.167 16.6816 21.167 11.6543C21.167 6.63574 17.0186 2.4873 11.9912 2.4873C6.97266 2.4873 2.83301 6.63574 2.83301 11.6543C2.83301 16.6816 6.97266 20.8213 12 20.8213ZM9.06445 15.4951C8.56348 15.4951 8.16797 15.0908 8.16797 14.5811C8.16797 14.3525 8.26465 14.124 8.43164 13.957L10.7168 11.6719L8.43164 9.37793C8.26465 9.21094 8.16797 8.98242 8.16797 8.75391C8.16797 8.24414 8.56348 7.84863 9.06445 7.84863C9.33691 7.84863 9.54785 7.93652 9.71484 8.1123L12 10.3887L14.3027 8.10352C14.4873 7.91895 14.6895 7.83984 14.9531 7.83984C15.4541 7.83984 15.8496 8.23535 15.8496 8.73633C15.8496 8.98242 15.7617 9.19336 15.5771 9.37793L13.292 11.6719L15.5771 13.9482C15.7441 14.124 15.8408 14.3438 15.8408 14.5811C15.8408 15.0908 15.4453 15.4951 14.9355 15.4951C14.6719 15.4951 14.4521 15.3984 14.2764 15.2314L12 12.9551L9.73242 15.2314C9.55664 15.4072 9.33691 15.4951 9.06445 15.4951Z" fill="#FF5722"/>
</svg>
