<svg width="24" height="24" viewBox="0 0 24 24" fill="none" xmlns="http://www.w3.org/2000/svg">
<path d="M12 20.8477C17.0361 20.8477 21.1846 16.6904 21.1846 11.6543C21.1846 6.61816 17.0273 2.46973 12 2.46973C6.96387 2.46973 2.81543 6.61816 2.81543 11.6543C2.81543 16.6904 6.96387 20.8477 12 20.8477ZM12 13.0605C11.4287 13.0605 11.1035 12.7441 11.0771 12.1729L10.9453 8.08594C10.9189 7.48828 11.3496 7.06641 11.9912 7.06641C12.624 7.06641 13.0635 7.48828 13.0459 8.09473L12.9053 12.1641C12.8789 12.7529 12.5537 13.0605 12 13.0605ZM12 16.1631C11.3584 16.1631 10.8311 15.7324 10.8311 15.1084C10.8311 14.4844 11.3496 14.0449 12 14.0449C12.6504 14.0449 13.1602 14.4844 13.1602 15.1084C13.1602 15.7324 12.6504 16.1631 12 16.1631Z" fill="#D38E4E"/>
</svg>
