<svg width="24" height="24" viewBox="0 0 24 24" fill="none" xmlns="http://www.w3.org/2000/svg">
<path d="M3.63281 19.6611H8.93262C10.4531 19.6611 11.1035 19.0283 11.1035 17.5342V15.5303H13.3623V18.6855C13.3623 19.2744 13.793 19.7139 14.3906 19.7139C14.8213 19.7139 15.1729 19.5381 15.5947 19.1426L22.5293 12.5947C22.8721 12.2783 22.9775 11.9443 22.9775 11.6543C22.9775 11.3555 22.8721 11.0215 22.5293 10.7051L15.5947 4.21875C15.1289 3.7793 14.8389 3.58594 14.4082 3.58594C13.793 3.58594 13.3623 4.07812 13.3623 4.66699V8.07715H7.6582C6.1377 8.07715 5.4873 8.70996 5.4873 10.2041V12.041H3.63281C2.1123 12.041 1.46191 12.665 1.46191 14.1592V17.5342C1.46191 19.0283 2.1123 19.6611 3.63281 19.6611ZM14.9004 17.8242C14.8213 17.8242 14.7773 17.7715 14.7773 17.6924V14.291C14.7773 14.0889 14.6807 14.001 14.4785 14.001H7.76367C7.18359 14.001 6.90234 13.6846 6.90234 13.043V10.2744C6.90234 9.62402 7.18359 9.31641 7.76367 9.31641H14.4785C14.6807 9.31641 14.7773 9.22852 14.7773 9.02637V5.53711C14.7773 5.4668 14.8213 5.41406 14.9004 5.41406C14.9531 5.41406 15.0059 5.44922 15.0498 5.48438L21.3076 11.4873C21.3779 11.5488 21.4043 11.6016 21.4043 11.6543C21.4043 11.707 21.3779 11.751 21.3076 11.8213L15.0498 17.7451C14.9971 17.7979 14.9443 17.8242 14.9004 17.8242ZM3.73828 18.2812C3.1582 18.2812 2.87695 17.9648 2.87695 17.3232V14.3701C2.87695 13.7285 3.1582 13.4209 3.73828 13.4209H5.50488V13.8428C5.50488 14.3789 5.67188 14.7656 6.16406 15.0732L9.68848 17.2266V17.3232C9.68848 17.9648 9.40723 18.2812 8.82715 18.2812H3.73828Z" fill="#D38E4E"/>
</svg>
