<svg width="24" height="24" viewBox="0 0 24 24" fill="none" xmlns="http://www.w3.org/2000/svg">
<path d="M4.88623 19.7598H19.1055C20.8984 19.7598 21.8281 18.8384 21.8281 17.0703V6.95996C21.8281 5.19189 20.8984 4.27051 19.1055 4.27051H4.88623C3.09326 4.27051 2.16357 5.18359 2.16357 6.95996V17.0703C2.16357 18.8384 3.09326 19.7598 4.88623 19.7598ZM4.98584 18.1328C4.21387 18.1328 3.79053 17.7344 3.79053 16.9292V7.10107C3.79053 6.2959 4.21387 5.88916 4.98584 5.88916H19.0059C19.7695 5.88916 20.2012 6.2959 20.2012 7.10107V16.9292C20.2012 17.7344 19.7695 18.1328 19.0059 18.1328H4.98584ZM5.33447 13.1938C5.33447 13.5425 5.6333 13.8496 5.99023 13.8496C6.15625 13.8496 6.31396 13.7832 6.47998 13.6089L9.75879 10.3301L10.2485 9.79883L10.1904 11.4507V12.2227C10.1904 12.6128 10.4478 12.8784 10.8296 12.8784C11.2114 12.8784 11.4771 12.6128 11.4771 12.2227V8.37109C11.4771 7.98096 11.2031 7.71533 10.8047 7.71533H6.86182C6.47168 7.71533 6.20605 7.97266 6.20605 8.36279C6.20605 8.74463 6.48828 9.00195 6.86182 9.00195H7.64209L9.37695 8.93555L8.8457 9.42529L5.5752 12.6958C5.40918 12.8701 5.33447 13.0278 5.33447 13.1938ZM18.7568 10.8364C18.7568 10.4878 18.4497 10.1724 18.0928 10.1724C17.9351 10.1724 17.769 10.2471 17.603 10.4131L14.3242 13.6919L13.8345 14.2314L13.9009 12.5713V11.8076C13.9009 11.4092 13.6353 11.1436 13.2534 11.1436C12.8799 11.1436 12.606 11.4092 12.606 11.8076V15.6509C12.606 16.041 12.8882 16.3149 13.2783 16.3149H17.2212C17.6113 16.3149 17.8853 16.0493 17.8853 15.6675C17.8853 15.2856 17.5947 15.02 17.2212 15.02H16.4492L14.7061 15.0864L15.2373 14.5967L18.5161 11.3262C18.6821 11.1602 18.7568 11.0024 18.7568 10.8364Z" fill="#D38E4E"/>
</svg>
