<svg width="24" height="24" viewBox="0 0 24 24" fill="none" xmlns="http://www.w3.org/2000/svg">
<path d="M12 21.9102C17.4492 21.9102 21.9609 17.3887 21.9609 11.9492C21.9609 6.5 17.4395 1.98828 11.9902 1.98828C6.55078 1.98828 2.03906 6.5 2.03906 11.9492C2.03906 17.3887 6.56055 21.9102 12 21.9102ZM12 20.25C7.39062 20.25 3.70898 16.5586 3.70898 11.9492C3.70898 7.33984 7.38086 3.64844 11.9902 3.64844C16.5996 3.64844 20.291 7.33984 20.3008 11.9492C20.3105 16.5586 16.6094 20.25 12 20.25ZM9.23633 15.875C9.23633 16.3242 9.54883 16.6367 10.0078 16.6367H10.418V17.4082C10.418 17.6914 10.6133 17.8867 10.8867 17.8867C11.1602 17.8867 11.3555 17.6914 11.3555 17.4082V16.6367H11.9902V17.4082C11.9902 17.6914 12.1953 17.8867 12.459 17.8867C12.7324 17.8867 12.9375 17.6914 12.9375 17.4082V16.6074C14.5586 16.4316 15.5059 15.4941 15.5059 14.0586C15.5059 12.9551 14.8516 12.1348 13.8457 11.832C14.5684 11.4805 15.0664 10.709 15.0664 9.87891C15.0664 8.66797 14.2363 7.78906 12.9375 7.59375V6.80273C12.9375 6.51953 12.7324 6.32422 12.459 6.32422C12.1953 6.32422 11.9902 6.51953 11.9902 6.80273V7.55469H11.3555V6.80273C11.3555 6.51953 11.1602 6.32422 10.8867 6.32422C10.6133 6.32422 10.418 6.51953 10.418 6.80273V7.55469H10.0078C9.55859 7.55469 9.23633 7.86719 9.23633 8.32617V15.875ZM10.4863 11.3828V8.6875H12.1562C13.2109 8.6875 13.8164 9.14648 13.8164 9.97656C13.8164 10.8945 13.1328 11.4023 11.8828 11.3926L10.4863 11.3828ZM10.4863 15.4941V12.5254H12.1367C13.5332 12.5254 14.2559 13.0234 14.2559 14.0098C14.2559 14.9766 13.5625 15.4746 12.2441 15.4844L10.4863 15.4941Z" fill="#3A3A3A" fill-opacity="0.8"/>
</svg>
