<svg width="24" height="24" viewBox="0 0 24 24" fill="none" xmlns="http://www.w3.org/2000/svg">
<path d="M2.80664 10.958C2.17383 10.958 2.01562 11.3887 2.3584 11.8809L4.32715 14.6758C4.61719 15.0801 5.03906 15.0713 5.32031 14.6758L7.28906 11.8721C7.62305 11.3887 7.46484 10.958 6.84082 10.958H5.56641C6.33105 7.63574 9.28418 5.19238 12.8525 5.19238C17.001 5.19238 20.3232 8.50586 20.3232 12.6543C20.3232 16.8027 17.001 20.1426 12.8525 20.125C10.3477 20.1162 8.15039 18.9033 6.80566 17.0312C6.5332 16.6709 6.12012 16.5566 5.75098 16.7764C5.39941 16.9961 5.30273 17.4795 5.60156 17.8662C7.27148 20.1074 9.89062 21.6191 12.8525 21.6191C17.748 21.6191 21.8174 17.5498 21.8174 12.6543C21.8174 7.75 17.748 3.68945 12.8525 3.68945C8.52832 3.68945 4.85449 6.84473 4.0459 10.958H2.80664ZM12.5186 7.50391C12.1318 7.50391 11.8154 7.81152 11.8154 8.19824V13.1025C11.8154 13.3047 11.877 13.4805 12.0264 13.6738L14.1973 16.5391C14.4873 16.917 14.8916 16.9785 15.252 16.7324C15.5771 16.5039 15.6035 16.0908 15.3398 15.7305L13.2129 12.8652V8.19824C13.2129 7.81152 12.9053 7.50391 12.5186 7.50391Z" fill="#3A3A3A" fill-opacity="0.8"/>
</svg>
