<svg width="24" height="24" viewBox="0 0 24 24" fill="none" xmlns="http://www.w3.org/2000/svg">
<path d="M3 8V18C3 19.6569 4.34315 21 6 21H18C19.6569 21 21 19.6569 21 18V11C21 9.34315 19.6569 8 18 8H9.5" stroke="#3A3A3A" stroke-opacity="0.8" stroke-width="1.5"/>
<path d="M17 8V8.75H17.75V8H17ZM7 7.25C6.58579 7.25 6.25 7.58579 6.25 8C6.25 8.41421 6.58579 8.75 7 8.75V7.25ZM7 4.75H15V3.25H7V4.75ZM16.25 6V8H17.75V6H16.25ZM17 7.25H7V8.75H17V7.25ZM15 4.75C15.6904 4.75 16.25 5.30964 16.25 6H17.75C17.75 4.48122 16.5188 3.25 15 3.25V4.75ZM7 3.25C4.37665 3.25 2.25 5.37665 2.25 8H3.75C3.75 6.20507 5.20507 4.75 7 4.75V3.25Z" fill="#3A3A3A" fill-opacity="0.8"/>
<circle cx="16.5" cy="14.5" r="1.5" fill="#3A3A3A" fill-opacity="0.8"/>
</svg>
