<svg width="120" height="72" viewBox="0 0 120 72" fill="none" xmlns="http://www.w3.org/2000/svg">
<rect width="120" height="72" fill="white"/>
<path d="M86.8387 15.2857C83.9928 15.2857 81.6774 17.6088 81.6774 20.4643C81.6774 21.3933 81.9344 22.6217 82.497 23.5942L72.6266 38.9L65.3265 19.673C66.4671 18.3214 67.2258 16.2023 67.2258 14.25C67.2258 10.2521 63.9835 7 60 7C56.0165 7 52.7742 10.2521 52.7742 14.25C52.7742 16.2023 53.5329 18.3214 54.6735 19.673L47.3734 38.901L37.503 23.5953C38.0655 22.6217 38.3226 21.3933 38.3226 20.4643C38.3226 17.6088 36.0072 15.2857 33.1613 15.2857C30.3154 15.2857 28 17.6088 28 20.4643C28 22.6403 29.3357 24.6216 31.2547 25.4057L38.1151 54.907C37.024 55.3875 36.2581 56.4792 36.2581 57.75V61.8929C36.2581 63.6059 37.6475 65 39.3548 65H80.6452C82.3525 65 83.7419 63.6059 83.7419 61.8929V57.75C83.7419 56.4792 82.976 55.3875 81.8849 54.907L88.7453 25.4057C90.6643 24.6216 92 22.6403 92 20.4643C92 17.6088 89.6846 15.2857 86.8387 15.2857ZM81.6774 61.8929C81.6774 62.4646 81.215 62.9286 80.6452 62.9286H39.3548C38.785 62.9286 38.3226 62.4646 38.3226 61.8929V57.75C38.3226 57.1783 38.785 56.7143 39.3548 56.7143H80.6452C81.215 56.7143 81.6774 57.1783 81.6774 57.75V61.8929ZM87.6139 23.6046L87.008 23.761L79.8266 54.6429H40.1734L32.992 23.761L32.3861 23.6046C31.0627 23.2628 30.0645 21.9122 30.0645 20.4643C30.0645 18.7512 31.4539 17.3571 33.1613 17.3571C34.8686 17.3571 36.2581 18.7512 36.2581 20.4643C36.2581 21.3281 35.9185 22.3928 35.4839 22.8858L34.9667 23.4741L47.8524 43.4551L57.088 19.1303L56.5585 18.6559C55.5788 17.7756 54.8387 15.8812 54.8387 14.25C54.8387 11.3945 57.1541 9.07143 60 9.07143C62.8459 9.07143 65.1613 11.3945 65.1613 14.25C65.1613 15.8812 64.4212 17.7756 63.4405 18.657L62.911 19.1313L72.1466 43.4561L85.0323 23.4751L84.5151 22.8868C84.0815 22.3928 83.7419 21.3281 83.7419 20.4643C83.7419 18.7512 85.1314 17.3571 86.8387 17.3571C88.5461 17.3571 89.9355 18.7512 89.9355 20.4643C89.9355 21.9122 88.9373 23.2628 87.6139 23.6046Z" fill="#5D86AF"/>
<path d="M45.5484 45.3213C43.841 45.3213 42.4516 46.7154 42.4516 48.4284C42.4516 50.1415 43.841 51.5356 45.5484 51.5356C47.2557 51.5356 48.6451 50.1415 48.6451 48.4284C48.6451 46.7154 47.2557 45.3213 45.5484 45.3213Z" fill="#D38E4E" fill-opacity="0.5"/>
<path d="M74.4516 45.3213C72.7443 45.3213 71.3549 46.7154 71.3549 48.4284C71.3549 50.1415 72.7443 51.5356 74.4516 51.5356C76.159 51.5356 77.5484 50.1415 77.5484 48.4284C77.5484 46.7154 76.159 45.3213 74.4516 45.3213Z" fill="#D38E4E" fill-opacity="0.5"/>
<path d="M52.5161 43.2496L60 53.2618L67.4839 43.2496L60 33.2373L52.5161 43.2496Z" fill="#D38E4E" fill-opacity="0.5"/>
<path d="M60 20.4648C59.4302 20.4648 58.9678 20.9288 58.9678 21.5006C58.9678 22.0723 59.4302 22.5363 60 22.5363C60.5698 22.5363 61.0323 22.0723 61.0323 21.5006C61.0323 20.9288 60.5698 20.4648 60 20.4648Z" fill="#5D86AF"/>
<path d="M60 24.6074C59.4302 24.6074 58.9678 25.0714 58.9678 25.6431C58.9678 26.2149 59.4302 26.6789 60 26.6789C60.5698 26.6789 61.0323 26.2149 61.0323 25.6431C61.0323 25.0714 60.5698 24.6074 60 24.6074Z" fill="#5D86AF"/>
<path d="M60 28.75C59.4302 28.75 58.9678 29.214 58.9678 29.7857C58.9678 30.3574 59.4302 30.8214 60 30.8214C60.5698 30.8214 61.0323 30.3574 61.0323 29.7857C61.0323 29.214 60.5698 28.75 60 28.75Z" fill="#5D86AF"/>
</svg>
