<svg width="120" height="72" viewBox="0 0 120 72" fill="none" xmlns="http://www.w3.org/2000/svg">
<rect width="120" height="72" fill="white"/>
<path d="M73.4194 40.1293C70.0036 40.1293 67.2258 37.3515 67.2258 33.9357C67.2258 30.52 70.0036 27.7422 73.4194 27.7422C76.8351 27.7422 79.6129 30.52 79.6129 33.9357C79.6129 37.3515 76.8351 40.1293 73.4194 40.1293Z" fill="#D38E4E" fill-opacity="0.5"/>
<path d="M32.129 39.0967H54.8387V44.258H32.129V39.0967Z" fill="#D38E4E" fill-opacity="0.5"/>
<path d="M61.0323 37.0318H32.129V20.5156H61.0323V37.0318Z" fill="#D38E4E" fill-opacity="0.5"/>
<path d="M38.3226 8.12891H32.129V14.3225H38.3226V8.12891ZM36.2581 12.2579H34.1935V10.1934H36.2581V12.2579Z" fill="#5D86AF"/>
<path d="M46.5806 8.12891H40.3871V14.3225H46.5806V8.12891ZM44.5161 12.2579H42.4516V10.1934H44.5161V12.2579Z" fill="#5D86AF"/>
<path d="M54.8387 8.12891H48.6451V14.3225H54.8387V8.12891ZM52.7742 12.2579H50.7097V10.1934H52.7742V12.2579Z" fill="#5D86AF"/>
<path d="M92 52.8248C92 49.3316 90.401 46.1295 87.871 43.9701V7.09677C87.871 5.38942 86.4815 4 84.7742 4H31.0968C29.3894 4 28 5.38942 28 7.09677V46.3226C28 48.0299 29.3894 49.4194 31.0968 49.4194H55.3662C55.0286 50.5032 54.8387 51.6459 54.8387 52.8248V54.5806H59.6098C56.6545 57.8725 54.8387 62.207 54.8387 66.9677V68H92V66.9677C92 62.207 90.1843 57.8725 87.2289 54.5806H92V52.8248ZM31.0968 6.06452H84.7742C85.343 6.06452 85.8064 6.528 85.8064 7.09677V12.2581H59.4839L56.3871 16.3871H30.0645V7.09677C30.0645 6.528 30.528 6.06452 31.0968 6.06452ZM31.0968 47.3548C30.528 47.3548 30.0645 46.8924 30.0645 46.3226V18.4516H57.4194L60.5161 14.3226H85.8064V42.5579C84.9786 42.1141 84.095 41.761 83.1608 41.5277C83.5375 39.7099 83.7419 37.8581 83.7419 36.0052C83.7419 30.3866 82.0387 24.9837 78.817 20.3809L77.5143 18.5197C76.5801 17.184 75.0493 16.3871 73.4194 16.3871C71.7894 16.3871 70.2586 17.184 69.3254 18.5187L68.0227 20.3799C64.8 24.9837 63.0968 30.3866 63.0968 36.0052C63.0968 37.8581 63.3012 39.711 63.6779 41.5267C60.4428 42.337 57.7693 44.513 56.2374 47.3548H31.0968ZM78.143 49.0188C76.6317 48.6204 75.0545 48.3871 73.4194 48.3871C71.7843 48.3871 70.207 48.6204 68.6957 49.0188L67.8204 47.2671C67.6655 46.9564 67.5241 46.6395 67.3827 46.3226H79.457C79.3146 46.6395 79.1742 46.9564 79.0194 47.2671L78.143 49.0188ZM80.2756 44.2581H66.5631C65.6454 41.6083 65.1613 38.8067 65.1613 36.0052C65.1613 32.4046 65.9344 28.9063 67.392 25.6774H79.4467C80.9032 28.9063 81.6774 32.4046 81.6774 36.0052C81.6774 38.8067 81.1933 41.6083 80.2756 44.2581ZM68.4356 23.6129C68.831 22.9151 69.249 22.2276 69.7135 21.5639L71.0163 19.7027C71.5644 18.9192 72.4625 18.4516 73.4194 18.4516C74.3763 18.4516 75.2743 18.9192 75.8224 19.7027L77.1252 21.5649C77.5897 22.2286 78.0077 22.9161 78.4031 23.6129H68.4356ZM64.1683 43.5345C64.6286 45.1375 65.2284 46.7004 65.9737 48.191L66.7086 49.6609C64.9104 50.3608 63.2444 51.3228 61.7672 52.5161H56.9094C57.0477 48.2519 60.0671 44.5646 64.1683 43.5345ZM61.6227 63.199L63.488 63.9711L64.2777 62.0635L62.4206 61.2945C62.8511 60.4635 63.3693 59.6862 63.9701 58.977L65.3904 60.3974L66.8501 58.9378L65.4297 57.5174C66.1378 56.9177 66.9151 56.3985 67.7471 55.968L68.5161 57.825L70.4237 57.0343L69.6516 55.1701C70.5259 54.8903 71.4426 54.7107 72.3881 54.6323V56.6452H74.4526V54.6333C75.3982 54.7117 76.3148 54.8914 77.1892 55.1711L76.417 57.0354L78.3246 57.8261L79.0937 55.969C79.9246 56.3995 80.7019 56.9177 81.4111 57.5185L79.9907 58.9388L81.4503 60.3985L82.8707 58.9781C83.4704 59.6862 83.9897 60.4635 84.4201 61.2955L82.5631 62.0645L83.3528 63.9721L85.2181 63.2C85.4978 64.0743 85.6774 64.991 85.7569 65.9365H78.4795C78.0645 63.9164 76.4707 62.3226 74.4516 61.9107V58.7097H72.3871V61.9107C70.368 62.3226 68.7742 63.9164 68.3623 65.9355H61.0849C61.1634 64.9899 61.343 64.0723 61.6227 63.199ZM73.4194 63.871C74.7634 63.871 75.8988 64.737 76.3262 65.9355H70.5135C70.9399 64.737 72.0754 63.871 73.4194 63.871ZM87.8183 65.9355C87.2857 58.4485 81.0395 52.5161 73.4194 52.5161C65.7992 52.5161 59.553 58.4485 59.0204 65.9355H56.9352C57.4699 57.3079 64.6596 50.4516 73.4194 50.4516C82.1791 50.4516 89.3688 57.3079 89.9035 65.9355H87.8183ZM85.0725 52.5161C83.5954 51.3228 81.9293 50.3608 80.1311 49.6609L80.8661 48.191C81.6114 46.7004 82.2111 45.1375 82.6715 43.5345C86.7716 44.5646 89.792 48.2529 89.9314 52.5161H85.0725Z" fill="#5D86AF"/>
<path d="M32.129 39.0967H34.1935V41.1612H32.129V39.0967Z" fill="#5D86AF"/>
<path d="M36.2581 39.0967H54.8387V41.1612H36.2581V39.0967Z" fill="#5D86AF"/>
<path d="M32.129 43.2256H54.8387V45.2901H32.129V43.2256Z" fill="#5D86AF"/>
</svg>
