<svg width="120" height="72" viewBox="0 0 120 72" fill="none" xmlns="http://www.w3.org/2000/svg">
<rect width="120" height="72" fill="white"/>
<path d="M78.5806 26.7096C83.7115 26.7096 87.8709 22.5501 87.8709 17.4192C87.8709 12.2883 83.7115 8.12891 78.5806 8.12891C73.4497 8.12891 69.2903 12.2883 69.2903 17.4192C69.2903 22.5501 73.4497 26.7096 78.5806 26.7096Z" fill="#D38E4E" fill-opacity="0.5"/>
<path d="M82.7097 45.29H74.4517V66.9675H82.7097V45.29Z" fill="#D38E4E" fill-opacity="0.5"/>
<path d="M57.9356 51.4844H49.6775V66.9682H57.9356V51.4844Z" fill="#D38E4E" fill-opacity="0.5"/>
<path d="M70.3225 41.1611H62.0645V66.9676H70.3225V41.1611Z" fill="#D38E4E" fill-opacity="0.5"/>
<path d="M45.5483 39.0967H37.2903V66.9676H45.5483V39.0967Z" fill="#D38E4E" fill-opacity="0.5"/>
<path d="M78.5807 22.5805C77.4421 22.5805 76.5162 21.6546 76.5162 20.516H74.4517C74.4517 22.4339 75.773 24.037 77.5484 24.4985V26.7096H79.613V24.4985C81.3884 24.037 82.7097 22.4339 82.7097 20.516C82.7097 18.2388 80.8579 16.387 78.5807 16.387C77.4421 16.387 76.5162 15.461 76.5162 14.3225C76.5162 13.1839 77.4421 12.2579 78.5807 12.2579C79.7193 12.2579 80.6452 13.1839 80.6452 14.3225H82.7097C82.7097 12.4045 81.3884 10.8014 79.613 10.34V8.12891H77.5484V10.34C75.773 10.8014 74.4517 12.4045 74.4517 14.3225C74.4517 16.5996 76.3035 18.4515 78.5807 18.4515C79.7193 18.4515 80.6452 19.3774 80.6452 20.516C80.6452 21.6546 79.7193 22.5805 78.5807 22.5805Z" fill="#5D86AF"/>
<path d="M78.5806 4C71.5283 4 65.729 9.46787 65.2005 16.3871H60.4129L52.7215 30.8088L47.1649 21.5484H44.5161V17.4194H42.4516V21.5484H40.3871V13.2903H38.3226V21.5484H36.2581V15.3548H34.1935V21.5484H32.129V13.2903H30.0645V21.5484H28V23.6129H45.9964L52.8279 34.9977L61.6516 18.4516H67.2258V17.4194C67.2258 11.1587 72.32 6.06452 78.5806 6.06452C84.8413 6.06452 89.9355 11.1587 89.9355 17.4194C89.9355 23.68 84.8413 28.7742 78.5806 28.7742C73.3966 28.7742 68.8733 25.2728 67.583 20.2591L65.5835 20.7732C67.1092 26.6994 72.4532 30.8387 78.5806 30.8387C85.9799 30.8387 92 24.8186 92 17.4194C92 10.0201 85.9799 4 78.5806 4Z" fill="#5D86AF"/>
<path d="M41.4193 30.8389C39.7119 30.8389 38.3225 32.2283 38.3225 33.9356C38.3225 35.643 39.7119 37.0324 41.4193 37.0324C41.9426 37.0324 42.4299 36.89 42.8624 36.6587L50.9573 44.0786C50.7984 44.4513 50.7096 44.8611 50.7096 45.2905C50.7096 46.9978 52.099 48.3873 53.8064 48.3873C55.5137 48.3873 56.9032 46.9978 56.9032 45.2905C56.9032 44.9694 56.8402 44.6649 56.7483 44.3738L64.4779 38.5767C64.9703 38.9039 65.5597 39.0969 66.1935 39.0969C67.1824 39.0969 68.0546 38.6221 68.6224 37.8985L75.49 40.187C75.521 41.8675 76.8928 43.226 78.5806 43.226C80.2879 43.226 81.6773 41.8365 81.6773 40.1292C81.6773 38.4218 80.2879 37.0324 78.5806 37.0324C77.5917 37.0324 76.7184 37.5073 76.1517 38.2319L69.2841 35.9424C69.2531 34.2618 67.8812 32.9034 66.1935 32.9034C64.4861 32.9034 63.0967 34.2928 63.0967 36.0002C63.0967 36.3212 63.1597 36.6247 63.2505 36.9168L55.5199 42.715C55.0286 42.3867 54.4402 42.1937 53.8064 42.1937C53.283 42.1937 52.7968 42.3362 52.3633 42.5674L44.2683 35.1475C44.4273 34.7749 44.5161 34.3651 44.5161 33.9356C44.5161 32.2283 43.1266 30.8389 41.4193 30.8389ZM41.4193 34.9679C40.8505 34.9679 40.387 34.5044 40.387 33.9356C40.387 33.3669 40.8505 32.9034 41.4193 32.9034C41.9881 32.9034 42.4515 33.3669 42.4515 33.9356C42.4515 34.5044 41.9881 34.9679 41.4193 34.9679ZM78.5806 39.0969C79.1493 39.0969 79.6128 39.5594 79.6128 40.1292C79.6128 40.699 79.1493 41.1614 78.5806 41.1614C78.0118 41.1614 77.5483 40.699 77.5483 40.1292C77.5483 39.5594 78.0118 39.0969 78.5806 39.0969ZM66.1935 34.9679C66.7623 34.9679 67.2257 35.4314 67.2257 36.0002C67.2257 36.5689 66.7623 37.0324 66.1935 37.0324C65.6247 37.0324 65.1612 36.5689 65.1612 36.0002C65.1612 35.4314 65.6247 34.9679 66.1935 34.9679ZM53.8064 44.2582C54.3752 44.2582 54.8386 44.7207 54.8386 45.2905C54.8386 45.8603 54.3752 46.3227 53.8064 46.3227C53.2376 46.3227 52.7741 45.8603 52.7741 45.2905C52.7741 44.7207 53.2376 44.2582 53.8064 44.2582Z" fill="#5D86AF"/>
<path d="M30.0645 65.9355H28V68.0001H30.0645V65.9355Z" fill="#5D86AF"/>
<path d="M87.871 65.9355H32.129V68.0001H87.871V65.9355Z" fill="#5D86AF"/>
<path d="M92.0001 65.9355H89.9355V68.0001H92.0001V65.9355Z" fill="#5D86AF"/>
</svg>
