<svg width="120" height="72" viewBox="0 0 120 72" fill="none" xmlns="http://www.w3.org/2000/svg">
<rect width="120" height="72" fill="white"/>
<path d="M40.3871 14.9274V10.1936H38.3226V14.3226H36.2581V8.12903H34.1935V14.3226H32.129V4H30.0645V14.3226H28V16.3871H38.9274L41.7218 19.1815L43.1815 17.7218L40.3871 14.9274Z" fill="#5D86AF"/>
<path d="M89.9355 65.9359V55.6133H87.871V65.9359H85.8065V59.7423H83.7419V65.9359H81.6774V61.8068H79.6129V65.9359H77.9758L70.0202 57.9802L68.5605 59.4399L77.121 68.0004H92V65.9359H89.9355Z" fill="#5D86AF"/>
<path d="M76.2158 32.9033C76.4068 33.9079 76.5162 34.9411 76.5162 36.0001C76.5162 45.1221 69.122 52.5162 60 52.5162C59.6512 52.5162 59.3105 52.4855 58.9678 52.4648V61.8066H60C74.2299 61.8066 85.8065 50.2299 85.8065 36.0001V32.9033H76.2158Z" fill="#D38E4E" fill-opacity="0.5"/>
<path d="M43.7843 39.0966C43.5933 38.0921 43.4839 37.0588 43.4839 35.9998C43.4839 26.8778 50.8781 19.4837 60.0001 19.4837C60.3488 19.4837 60.6896 19.5144 61.0323 19.5351V10.1934H60.0001C45.7702 10.1934 34.1936 21.77 34.1936 35.9998V39.0966H43.7843Z" fill="#D38E4E" fill-opacity="0.5"/>
<path d="M68.2581 47.3549H51.7419V32.9033H68.2581V47.3549Z" fill="#D38E4E" fill-opacity="0.5"/>
<path d="M58.9678 37.0322H61.0323V39.0967H58.9678V37.0322Z" fill="#5D86AF"/>
<path d="M58.9678 41.1611H61.0323V47.3547H58.9678V41.1611Z" fill="#5D86AF"/>
<path d="M55.8709 32.9036H53.8064V28.7746C53.8064 25.3588 56.5841 22.5811 59.9999 22.5811C63.4158 22.5811 66.1935 25.3588 66.1935 28.7746V30.8391H64.129V28.7746C64.129 26.4974 62.2772 24.6456 59.9999 24.6456C57.7227 24.6456 55.8709 26.4974 55.8709 28.7746V32.9036Z" fill="#5D86AF"/>
<path d="M53.3922 15.3292L55.3861 14.7949L55.9204 16.7889L53.9264 17.3231L53.3922 15.3292Z" fill="#5D86AF"/>
<path d="M48.2681 17.7437L50.0559 16.7119L51.0882 18.4997L49.2999 19.532L48.2681 17.7437Z" fill="#5D86AF"/>
<path d="M43.9436 21.4016L45.4038 19.9424L46.8635 21.4026L45.4028 22.8622L43.9436 21.4016Z" fill="#5D86AF"/>
<path d="M40.7097 26.0559L41.742 24.2676L43.5298 25.2998L42.4975 27.0881L40.7097 26.0559Z" fill="#5D86AF"/>
<path d="M38.7933 31.3875L39.3276 29.3936L41.3216 29.9278L40.7873 31.9218L38.7933 31.3875Z" fill="#5D86AF"/>
<path d="M64.0766 55.211L66.0705 54.6768L66.6053 56.6707L64.6109 57.205L64.0766 55.211Z" fill="#5D86AF"/>
<path d="M68.9128 53.503L70.7006 52.4707L71.7329 54.259L69.9446 55.2913L68.9128 53.503Z" fill="#5D86AF"/>
<path d="M73.1422 50.5978L74.6028 49.1387L76.062 50.5989L74.6018 52.0585L73.1422 50.5978Z" fill="#5D86AF"/>
<path d="M76.4672 46.7004L77.4995 44.9121L79.2873 45.9444L78.255 47.7327L76.4672 46.7004Z" fill="#5D86AF"/>
<path d="M78.6785 42.077L79.2127 40.083L81.2072 40.6173L80.6729 42.6112L78.6785 42.077Z" fill="#5D86AF"/>
<path d="M65.0282 19.1892C63.4168 18.7073 61.7258 18.4513 60 18.4513C50.3236 18.4513 42.4516 26.3233 42.4516 35.9997C42.4516 36.6756 42.495 37.3676 42.5796 38.0642H32.129V40.1287H45.0312L44.7979 38.9034C44.6109 37.9186 44.5161 36.9422 44.5161 35.9997C44.5161 27.4619 51.4622 20.5158 60 20.5158C65.123 20.5158 69.9088 23.0481 72.8009 27.2905L73.1089 27.7416H83.7419V25.6771H74.1895C72.3574 23.1615 69.9209 21.2169 67.1568 19.981L70.75 16.3868H72.9919L78.1532 21.5481H83.7419V19.4836H79.0081L75.9113 16.3868H87.871V14.3223H69.8952L65.0282 19.1892Z" fill="#5D86AF"/>
<path d="M89.9355 14.3223H92V16.3868H89.9355V14.3223Z" fill="#5D86AF"/>
<path d="M85.8065 19.4844H87.871V21.5489H85.8065V19.4844Z" fill="#5D86AF"/>
<path d="M85.8065 25.6777H87.871V27.7422H85.8065V25.6777Z" fill="#5D86AF"/>
<path d="M89.9355 31.8711H92V33.9356H89.9355V31.8711Z" fill="#5D86AF"/>
<path d="M28 55.6133H30.0645V57.6778H28V55.6133Z" fill="#5D86AF"/>
<path d="M32.129 50.4512H34.1935V52.5157H32.129V50.4512Z" fill="#5D86AF"/>
<path d="M75.2021 33.0964C75.3891 34.0813 75.4839 35.0576 75.4839 36.0001C75.4839 44.5379 68.5378 51.484 60 51.484C54.877 51.484 50.0912 48.9517 47.1991 44.7093L46.8911 44.2582H36.2581V46.3227H45.8105C47.6426 48.8383 50.0791 50.7829 52.8432 52.0188L49.25 55.613H47.0081L41.8468 50.4517H36.2581V52.5163H40.9919L44.0887 55.613H32.129V57.6776H50.1048L54.9718 52.8106C56.5832 53.2925 58.2742 53.5485 60 53.5485C69.6764 53.5485 77.5484 45.6765 77.5484 36.0001C77.5484 35.3242 77.505 34.6322 77.4204 33.9356H87.871V31.8711H74.9688L75.2021 33.0964Z" fill="#5D86AF"/>
<path d="M32.129 44.2578H34.1935V46.3223H32.129V44.2578Z" fill="#5D86AF"/>
<path d="M28 38.0645H30.0645V40.129H28V38.0645Z" fill="#5D86AF"/>
</svg>
