<svg width="17" height="16" viewBox="0 0 17 16" fill="none" xmlns="http://www.w3.org/2000/svg">
<path d="M8.5 15.2778C12.6382 15.2778 16.0659 11.8574 16.0659 7.71191C16.0659 3.57373 12.6382 0.145996 8.49268 0.145996C4.35449 0.145996 0.934082 3.57373 0.934082 7.71191C0.934082 11.8574 4.36182 15.2778 8.5 15.2778ZM8.5 13.791C5.13086 13.791 2.42822 11.0811 2.42822 7.71191C2.42822 4.34277 5.12354 1.64014 8.49268 1.64014C11.8618 1.64014 14.5718 4.34277 14.5791 7.71191C14.5791 11.0811 11.8691 13.791 8.5 13.791ZM8.49268 8.93506C8.88818 8.93506 9.11523 8.70801 9.12988 8.29053L9.23975 4.73096C9.25439 4.29883 8.93213 3.99121 8.48535 3.99121C8.03125 3.99121 7.72363 4.29883 7.73828 4.72363L7.84082 8.29053C7.85547 8.70068 8.08252 8.93506 8.49268 8.93506ZM8.49268 11.3594C8.96143 11.3594 9.34961 11.0225 9.34961 10.5537C9.34961 10.0923 8.96875 9.75537 8.49268 9.75537C8.0166 9.75537 7.63574 10.0996 7.63574 10.5537C7.63574 11.0151 8.02393 11.3594 8.49268 11.3594Z" fill="white"/>
</svg>
