<svg width="24" height="24" viewBox="0 0 24 24" fill="none" xmlns="http://www.w3.org/2000/svg">
<path d="M11.9922 4.92188C11.4141 4.92188 11.0234 5.32031 11.0234 5.91406V15.1719L11.0859 16.8672L9.23438 14.7734L7.47656 13.0234C7.29688 12.8516 7.0625 12.7344 6.78125 12.7344C6.25 12.7344 5.85156 13.125 5.85156 13.6719C5.85156 13.9297 5.95312 14.1719 6.15625 14.375L11.2734 19.5C11.4609 19.6953 11.7266 19.8047 11.9922 19.8047C12.2578 19.8047 12.5312 19.6953 12.7188 19.5L17.8359 14.375C18.0391 14.1719 18.1406 13.9297 18.1406 13.6719C18.1406 13.125 17.7422 12.7344 17.2109 12.7344C16.9297 12.7344 16.6953 12.8516 16.5156 13.0234L14.75 14.7734L12.8984 16.8672L12.9688 15.1719V5.91406C12.9688 5.32031 12.5703 4.92188 11.9922 4.92188Z" fill="#FF5722"/>
</svg>
