<svg width="22" height="20" viewBox="0 0 22 20" fill="none" xmlns="http://www.w3.org/2000/svg">
<path d="M4.80371 19.085C6.02539 19.085 8.49512 17.8984 10.3496 16.5801C16.5459 16.6943 21.1777 13.1084 21.1777 8.41504C21.1777 3.87988 16.6514 0.232422 11 0.232422C5.34863 0.232422 0.822266 3.87988 0.822266 8.41504C0.822266 11.2979 2.62402 13.8818 5.375 15.2178C4.99707 15.9385 4.32031 16.9229 3.94238 17.4238C3.38867 18.1621 3.7666 19.085 4.80371 19.085ZM5.84961 17.3008C5.75293 17.3447 5.70898 17.2832 5.7793 17.1953C6.22754 16.6328 6.89551 15.7627 7.2207 15.1562C7.48438 14.6729 7.3877 14.251 6.8252 13.9873C4.14453 12.7217 2.58887 10.7178 2.58887 8.41504C2.58887 4.87305 6.31543 1.99023 11 1.99023C15.6846 1.99023 19.4111 4.87305 19.4111 8.41504C19.4111 11.957 15.6846 14.8398 11 14.8398C10.833 14.8398 10.5957 14.8311 10.2793 14.8223C9.90137 14.8223 9.62012 14.9365 9.26855 15.209C8.21387 15.9912 6.64062 16.9844 5.84961 17.3008Z" fill="#5D86AF"/>
</svg>
