<svg width="24" height="24" viewBox="0 0 24 24" fill="none" xmlns="http://www.w3.org/2000/svg">
<path d="M5.00684 18.5107C5.00684 19.9395 5.71094 20.6572 7.12598 20.6572H13.5518C14.9668 20.6572 15.6709 19.9326 15.6709 18.5107V17.2461H16.8672C18.2754 17.2461 18.9863 16.5215 18.9863 15.0996V5.60449C18.9863 4.18262 18.2754 3.45801 16.8672 3.45801H10.4414C9.0332 3.45801 8.32227 4.17578 8.32227 5.60449V6.86914H7.12598C5.71777 6.86914 5.00684 7.58691 5.00684 9.01562V18.5107ZM11.9863 5.80273C11.6855 5.80273 11.5488 5.60449 11.5488 5.39941V5.25586C11.5488 5.04395 11.6855 4.85254 11.9863 4.85254H15.3223C15.6162 4.85254 15.7598 5.04395 15.7598 5.25586V5.39941C15.7598 5.60449 15.6162 5.80273 15.3223 5.80273H11.9863ZM6.10742 18.4902V9.0293C6.10742 8.35938 6.46973 7.96973 7.18066 7.96973H9.42285V11.9346C9.42285 12.7959 9.86035 13.2266 10.708 13.2266H14.5703V18.4902C14.5703 19.1738 14.2012 19.5566 13.4971 19.5566H7.17383C6.46973 19.5566 6.10742 19.1738 6.10742 18.4902ZM10.8379 12.1943C10.5645 12.1943 10.4551 12.085 10.4551 11.8115V8.22266L14.3584 12.1943H10.8379Z" fill="#3A3A3A"/>
</svg>
