<svg width="24" height="24" viewBox="0 0 24 24" fill="none" xmlns="http://www.w3.org/2000/svg">
<mask id="path-1-inside-1_204:2772" fill="white">
<path d="M11.5 8C11.5 7.72386 11.7239 7.5 12 7.5C12.2761 7.5 12.5 7.72386 12.5 8V16C12.5 16.2761 12.2761 16.5 12 16.5C11.7239 16.5 11.5 16.2761 11.5 16V8Z"/>
</mask>
<path d="M11.5 8C11.5 7.72386 11.7239 7.5 12 7.5C12.2761 7.5 12.5 7.72386 12.5 8V16C12.5 16.2761 12.2761 16.5 12 16.5C11.7239 16.5 11.5 16.2761 11.5 16V8Z" fill="#B7B7B7"/>
<path d="M11.5 8V16H13.5V8H11.5ZM12.5 16V8H10.5V16H12.5ZM12 15.5C12.2761 15.5 12.5 15.7239 12.5 16H10.5C10.5 16.8284 11.1716 17.5 12 17.5V15.5ZM11.5 16C11.5 15.7239 11.7239 15.5 12 15.5V17.5C12.8284 17.5 13.5 16.8284 13.5 16H11.5ZM12 8.5C11.7239 8.5 11.5 8.27614 11.5 8H13.5C13.5 7.17157 12.8284 6.5 12 6.5V8.5ZM12 6.5C11.1716 6.5 10.5 7.17157 10.5 8H12.5C12.5 8.27614 12.2761 8.5 12 8.5V6.5Z" fill="#B7B7B7" mask="url(#path-1-inside-1_204:2772)"/>
<rect x="9" y="2.5" width="6" height="8" rx="1" stroke="#B7B7B7"/>
<rect x="9" y="13.5" width="6" height="8" rx="1" stroke="#B7B7B7"/>
</svg>
