<svg width="24" height="24" viewBox="0 0 24 24" fill="none" xmlns="http://www.w3.org/2000/svg">
<path d="M11.9922 19.0781C11.4141 19.0781 11.0234 18.6797 11.0234 18.0859V8.82812L11.0859 7.13281L9.23438 9.22656L7.47656 10.9766C7.29688 11.1484 7.0625 11.2656 6.78125 11.2656C6.25 11.2656 5.85156 10.875 5.85156 10.3281C5.85156 10.0703 5.95312 9.82812 6.15625 9.625L11.2734 4.5C11.4609 4.30469 11.7266 4.19531 11.9922 4.19531C12.2578 4.19531 12.5312 4.30469 12.7188 4.5L17.8359 9.625C18.0391 9.82812 18.1406 10.0703 18.1406 10.3281C18.1406 10.875 17.7422 11.2656 17.2109 11.2656C16.9297 11.2656 16.6953 11.1484 16.5156 10.9766L14.75 9.22656L12.8984 7.13281L12.9688 8.82812V18.0859C12.9688 18.6797 12.5703 19.0781 11.9922 19.0781Z" fill="#8BC34A"/>
</svg>
