<svg width="20" height="20" viewBox="0 0 20 20" fill="none" xmlns="http://www.w3.org/2000/svg">
<rect x="2.5" y="2.5" width="15" height="15" rx="2.5" fill="#5D86AF" stroke="#5D86AF"/>
<path d="M9.06055 14.3301C9.31934 14.3301 9.51953 14.2227 9.66113 14.0127L14.251 6.86426C14.3535 6.70312 14.3975 6.56641 14.3975 6.43457C14.3975 6.08789 14.1533 5.84863 13.8018 5.84863C13.5625 5.84863 13.416 5.93652 13.2695 6.16602L9.03613 12.8799L6.86328 10.0918C6.7168 9.90137 6.56543 9.82324 6.35059 9.82324C5.99902 9.82324 5.74512 10.0723 5.74512 10.4141C5.74512 10.5654 5.79883 10.7119 5.92578 10.8633L8.45508 14.0176C8.62598 14.2324 8.80664 14.3301 9.06055 14.3301Z" fill="white"/>
</svg>
