<svg width="20" height="20" viewBox="0 0 20 20" fill="none" xmlns="http://www.w3.org/2000/svg">
<path d="M5.33105 16.3672L14.6689 16.3672C16.0977 16.3672 16.8086 15.6562 16.8086 14.248L16.8086 5.90137C16.8086 4.49316 16.0977 3.78223 14.6689 3.78223L5.33105 3.78223C3.90234 3.78223 3.18457 4.48633 3.18457 5.90137L3.18457 14.248C3.18457 15.6631 3.90234 16.3672 5.33105 16.3672ZM5.22852 15.2666C4.62012 15.2666 4.28516 14.9453 4.28516 14.3096L4.28516 7.86328C4.28516 7.23437 4.62012 6.90625 5.22852 6.90625L14.7578 6.90625C15.3662 6.90625 15.708 7.23437 15.708 7.86328V14.3096C15.708 14.9453 15.3662 15.2666 14.7578 15.2666L5.22852 15.2666ZM8.66699 9.36035H9.07031C9.30957 9.36035 9.38477 9.29199 9.38477 9.05273V8.64941C9.38477 8.41016 9.30957 8.33496 9.07031 8.33496H8.66699C8.42773 8.33496 8.3457 8.41016 8.3457 8.64941V9.05273C8.3457 9.29199 8.42773 9.36035 8.66699 9.36035ZM10.9365 9.36035H11.3398C11.5791 9.36035 11.6611 9.29199 11.6611 9.05273V8.64941C11.6611 8.41016 11.5791 8.33496 11.3398 8.33496H10.9365C10.6973 8.33496 10.6152 8.41016 10.6152 8.64941V9.05273C10.6152 9.29199 10.6973 9.36035 10.9365 9.36035ZM13.2061 9.36035H13.6094C13.8486 9.36035 13.9307 9.29199 13.9307 9.05273V8.64941C13.9307 8.41016 13.8486 8.33496 13.6094 8.33496H13.2061C12.9668 8.33496 12.8916 8.41016 12.8916 8.64941V9.05273C12.8916 9.29199 12.9668 9.36035 13.2061 9.36035ZM6.39746 11.5957H6.79395C7.04004 11.5957 7.11523 11.5273 7.11523 11.2881V10.8848C7.11523 10.6455 7.04004 10.5771 6.79395 10.5771H6.39746C6.15137 10.5771 6.07617 10.6455 6.07617 10.8848V11.2881C6.07617 11.5273 6.15137 11.5957 6.39746 11.5957ZM8.66699 11.5957H9.07031C9.30957 11.5957 9.38477 11.5273 9.38477 11.2881V10.8848C9.38477 10.6455 9.30957 10.5771 9.07031 10.5771H8.66699C8.42773 10.5771 8.3457 10.6455 8.3457 10.8848V11.2881C8.3457 11.5273 8.42773 11.5957 8.66699 11.5957ZM10.9365 11.5957H11.3398C11.5791 11.5957 11.6611 11.5273 11.6611 11.2881V10.8848C11.6611 10.6455 11.5791 10.5771 11.3398 10.5771H10.9365C10.6973 10.5771 10.6152 10.6455 10.6152 10.8848V11.2881C10.6152 11.5273 10.6973 11.5957 10.9365 11.5957ZM13.2061 11.5957H13.6094C13.8486 11.5957 13.9307 11.5273 13.9307 11.2881V10.8848C13.9307 10.6455 13.8486 10.5771 13.6094 10.5771H13.2061C12.9668 10.5771 12.8916 10.6455 12.8916 10.8848V11.2881C12.8916 11.5273 12.9668 11.5957 13.2061 11.5957ZM6.39746 13.8379H6.79395C7.04004 13.8379 7.11523 13.7627 7.11523 13.5234V13.1201C7.11523 12.8809 7.04004 12.8125 6.79395 12.8125H6.39746C6.15137 12.8125 6.07617 12.8809 6.07617 13.1201V13.5234C6.07617 13.7627 6.15137 13.8379 6.39746 13.8379ZM8.66699 13.8379H9.07031C9.30957 13.8379 9.38477 13.7627 9.38477 13.5234V13.1201C9.38477 12.8809 9.30957 12.8125 9.07031 12.8125H8.66699C8.42773 12.8125 8.3457 12.8809 8.3457 13.1201V13.5234C8.3457 13.7627 8.42773 13.8379 8.66699 13.8379ZM10.9365 13.8379H11.3398C11.5791 13.8379 11.6611 13.7627 11.6611 13.5234V13.1201C11.6611 12.8809 11.5791 12.8125 11.3398 12.8125H10.9365C10.6973 12.8125 10.6152 12.8809 10.6152 13.1201V13.5234C10.6152 13.7627 10.6973 13.8379 10.9365 13.8379Z" fill="#787878"/>
</svg>
