<svg width="24" height="24" viewBox="0 0 24 24" fill="none" xmlns="http://www.w3.org/2000/svg">
<path d="M0 3C0 1.34315 1.34315 0 3 0H21C22.6569 0 24 1.34315 24 3V21C24 22.6569 22.6569 24 21 24H3C1.34315 24 0 22.6569 0 21V3Z" fill="#B7B7B7"/>
<path d="M8.30859 12.0713C8.30859 11.3125 7.69336 10.7041 6.9209 10.7041C6.16895 10.7041 5.55371 11.3125 5.55371 12.0713C5.55371 12.8301 6.16895 13.4385 6.9209 13.4385C7.69336 13.4385 8.30859 12.8301 8.30859 12.0713ZM13.3672 12.0713C13.3672 11.3125 12.7588 10.7041 12 10.7041C11.248 10.7041 10.6396 11.3125 10.6396 12.0713C10.6396 12.8301 11.248 13.4385 12 13.4385C12.7588 13.4385 13.3672 12.8301 13.3672 12.0713ZM18.4463 12.0713C18.4463 11.3125 17.8379 10.7041 17.0791 10.7041C16.3066 10.7041 15.6982 11.3125 15.6982 12.0713C15.6982 12.8301 16.3066 13.4385 17.0791 13.4385C17.8379 13.4385 18.4463 12.8301 18.4463 12.0713Z" fill="white"/>
</svg>
