<svg width="24" height="24" viewBox="0 0 24 24" fill="none" xmlns="http://www.w3.org/2000/svg">
<path d="M2.86816 12.0645C2.86816 11.8936 2.93652 11.7363 3.06641 11.6133L8.48047 6.30859C8.60352 6.19238 8.75391 6.13086 8.93164 6.13086C9.28027 6.13086 9.55371 6.39746 9.55371 6.75293C9.55371 6.92383 9.48535 7.08105 9.37598 7.19727L4.39941 12.0645L9.37598 16.9316C9.48535 17.0479 9.55371 17.1982 9.55371 17.376C9.55371 17.7314 9.28027 17.998 8.93164 17.998C8.75391 17.998 8.60352 17.9365 8.48047 17.8135L3.06641 12.5156C2.93652 12.3857 2.86816 12.2354 2.86816 12.0645Z" fill="#787878"/>
</svg>
