<svg width="24" height="24" viewBox="0 0 24 24" fill="none" xmlns="http://www.w3.org/2000/svg">
<path d="M21.1318 12.0645C21.1318 11.8936 21.0635 11.7363 20.9336 11.6133L15.5195 6.30859C15.3965 6.19238 15.2461 6.13086 15.0684 6.13086C14.7197 6.13086 14.4463 6.39746 14.4463 6.75293C14.4463 6.92383 14.5146 7.08105 14.624 7.19727L19.6006 12.0645L14.624 16.9316C14.5146 17.0479 14.4463 17.1982 14.4463 17.376C14.4463 17.7314 14.7197 17.998 15.0684 17.998C15.2461 17.998 15.3965 17.9365 15.5195 17.8135L20.9336 12.5156C21.0635 12.3857 21.1318 12.2354 21.1318 12.0645Z" fill="#787878"/>
</svg>
