<svg width="24" height="24" viewBox="0 0 24 24" fill="none" xmlns="http://www.w3.org/2000/svg">
<path d="M1.83105 11.5664C1.83105 13.7021 2.89453 14.959 4.89844 15.1963L6.91113 19.6436C7.40332 20.7334 8.07129 21.2607 9.09082 21.2607C10.3652 21.2607 11.2793 20.3467 10.9893 18.8438L10.3389 15.4688C12.8789 15.9258 15.4541 16.8223 17.7568 18.167C18.0029 19.1426 18.8115 19.7578 19.9189 19.7578C21.2637 19.7578 22.1602 18.8613 22.1602 17.5254V4.21875C22.1602 2.87402 21.2637 1.97754 19.9189 1.97754C18.7764 1.97754 17.959 2.62793 17.7393 3.64746C15.041 5.24707 11.5957 6.2666 8.8623 6.55664H5.63672C3.14941 6.55664 1.83105 7.83984 1.83105 10.2305V11.5664ZM19.1016 17.5254V4.21875C19.1016 3.71777 19.4268 3.39258 19.9189 3.39258C20.4111 3.39258 20.7451 3.71777 20.7451 4.21875V17.5254C20.7451 18.0176 20.4111 18.3428 19.9189 18.3428C19.4268 18.3428 19.1016 18.0176 19.1016 17.5254ZM9.02051 13.8516V7.93652C12.1494 7.57617 15.1289 6.69727 17.6865 5.22949V16.5674C15.0674 15.0645 12.1143 14.2119 9.02051 13.8516ZM5.63672 13.8252C3.94922 13.8252 3.24609 13.1572 3.24609 11.5664V10.2305C3.24609 8.63965 3.94922 7.97168 5.63672 7.97168H7.60547V13.8252H5.63672ZM8.22949 19.2568L6.34863 15.2402H8.80957C8.8623 15.2402 8.91504 15.249 8.96777 15.2578L9.72363 19.0459C9.8291 19.5908 9.52148 19.9336 9.06445 19.9336C8.65137 19.9336 8.44922 19.7227 8.22949 19.2568Z" fill="#5D86AF"/>
</svg>
