<svg width="20" height="20" viewBox="0 0 20 20" fill="none" xmlns="http://www.w3.org/2000/svg">
<path d="M9.93555 14.2178C10.1064 14.2178 10.2637 14.1494 10.3867 14.0195L15.6914 8.60547C15.8076 8.48242 15.8691 8.33203 15.8691 8.1543C15.8691 7.80566 15.6025 7.53223 15.2471 7.53223C15.0762 7.53223 14.9189 7.60059 14.8027 7.70996L9.93555 12.6865L5.06836 7.70996C4.95215 7.60059 4.80176 7.53223 4.62402 7.53223C4.26855 7.53223 4.00195 7.80566 4.00195 8.1543C4.00195 8.33203 4.06348 8.48242 4.18652 8.60547L9.48437 14.0195C9.61426 14.1494 9.76465 14.2178 9.93555 14.2178Z" fill="#787878"/>
</svg>
