<svg width="24" height="24" viewBox="0 0 24 24" fill="none" xmlns="http://www.w3.org/2000/svg">
<path d="M4.28906 10.9375C4.28906 14.4453 7.14062 17.2969 10.6484 17.2969C11.9531 17.2969 13.1484 16.8984 14.1484 16.2188L17.7422 19.8125C17.9609 20.0391 18.2656 20.1406 18.5703 20.1406C19.2344 20.1406 19.7109 19.6406 19.7109 18.9922C19.7109 18.6797 19.6016 18.3906 19.3906 18.1719L15.8203 14.5938C16.5625 13.5703 17.0078 12.3047 17.0078 10.9375C17.0078 7.42969 14.1562 4.57812 10.6484 4.57812C7.14062 4.57812 4.28906 7.42969 4.28906 10.9375ZM5.94531 10.9375C5.94531 8.34375 8.04688 6.23438 10.6484 6.23438C13.2422 6.23438 15.3516 8.34375 15.3516 10.9375C15.3516 13.5312 13.2422 15.6406 10.6484 15.6406C8.04688 15.6406 5.94531 13.5312 5.94531 10.9375Z" fill="#B7B7B7"/>
</svg>
