<svg width="36" height="36" viewBox="0 0 36 36" fill="none" xmlns="http://www.w3.org/2000/svg">
<path d="M4.24023 17.9492C4.24023 17.7051 4.33789 17.4805 4.52344 17.3047L12.2578 9.72656C12.4336 9.56055 12.6484 9.47266 12.9023 9.47266C13.4004 9.47266 13.791 9.85352 13.791 10.3613C13.791 10.6055 13.6934 10.8301 13.5371 10.9961L6.42773 17.9492L13.5371 24.9023C13.6934 25.0684 13.791 25.2832 13.791 25.5371C13.791 26.0449 13.4004 26.4258 12.9023 26.4258C12.6484 26.4258 12.4336 26.3379 12.2578 26.1621L4.52344 18.5938C4.33789 18.4082 4.24023 18.1934 4.24023 17.9492Z" fill="#787878"/>
</svg>
