<svg width="14" height="18" viewBox="0 0 14 18" fill="none" xmlns="http://www.w3.org/2000/svg">
<path d="M6.77344 8.97656C7 8.97656 7.17969 8.90625 7.32031 8.75781L10.5234 5.53125C10.6953 5.35938 10.7734 5.17188 10.7734 4.95312C10.7734 4.74219 10.6875 4.53906 10.5234 4.38281L7.32031 1.125C7.17969 0.96875 7 0.890625 6.77344 0.890625C6.35156 0.890625 6.01562 1.24219 6.01562 1.67188C6.01562 1.88281 6.09375 2.05469 6.22656 2.20312L8.09375 4.03125C7.72656 3.97656 7.35156 3.94531 6.97656 3.94531C3.10938 3.94531 0.015625 7.03906 0.015625 10.9141C0.015625 14.7891 3.13281 17.9062 7 17.9062C10.875 17.9062 13.9844 14.7891 13.9844 10.9141C13.9844 10.4453 13.6562 10.1094 13.1875 10.1094C12.7344 10.1094 12.4297 10.4453 12.4297 10.9141C12.4297 13.9297 10.0156 16.3516 7 16.3516C3.99219 16.3516 1.57031 13.9297 1.57031 10.9141C1.57031 7.875 3.96875 5.46875 6.97656 5.46875C7.48438 5.46875 7.95312 5.50781 8.36719 5.57812L6.23438 7.6875C6.09375 7.82812 6.01562 8 6.01562 8.21094C6.01562 8.64062 6.35156 8.97656 6.77344 8.97656Z" fill="#B7B7B7"/>
</svg>
