<svg width="37" height="32" viewBox="0 0 37 32" fill="none" xmlns="http://www.w3.org/2000/svg">
<path d="M8.49219 24.0156H16.9688V16.4277L17.0918 14.4727L16.3535 15.4707L14.5762 17.3574C14.3301 17.6309 13.9609 17.7812 13.6055 17.7812C12.9082 17.7812 12.334 17.2754 12.334 16.5508C12.334 16.168 12.4707 15.8945 12.7305 15.6348L17.2969 11.2461C17.6797 10.877 18.0352 10.7402 18.4316 10.7402C18.8145 10.7402 19.1836 10.877 19.5527 11.2461L24.1191 15.6348C24.3789 15.8945 24.5293 16.168 24.5293 16.5508C24.5293 17.2754 23.9277 17.7812 23.2441 17.7812C22.8887 17.7812 22.5332 17.6309 22.2871 17.3574L20.4961 15.4707L19.7578 14.4727L19.8809 16.4277V24.0156H29.2188C33.375 24.0156 36.1914 21.5137 36.1914 17.9727C36.1914 15.0195 34.5371 12.4902 31.7891 11.4102C31.7891 5.14844 27.2773 0.650391 21.4395 0.650391C17.8438 0.650391 15.0547 2.44141 13.2773 4.99805C9.90039 4.20508 6.09961 6.7207 5.9082 10.5898C2.75 11.1914 0.808594 13.9805 0.808594 17.2754C0.808594 21.0215 3.89844 24.0156 8.49219 24.0156ZM18.418 31.0977C19.2246 31.0977 19.8535 30.4414 19.8535 29.6895V23.291C19.8262 24.0156 19.2109 24.6719 18.418 24.6719C17.6387 24.6719 17.0234 24.0156 16.9961 23.291V29.6895C16.9961 30.4414 17.625 31.0977 18.418 31.0977Z" fill="#E1E1E1"/>
</svg>
