<svg width="17" height="17" viewBox="0 0 17 17" fill="none" xmlns="http://www.w3.org/2000/svg">
<path d="M15.3532 1H1.64488C1.40396 1 1.18111 1.12926 1.0727 1.34078C0.958261 1.55229 0.982353 1.81081 1.12088 2.0047L6.14405 8.90834L6.15008 8.91422C6.33077 9.15511 6.43316 9.44301 6.43316 9.74266V15.3713C6.43316 15.5358 6.49941 15.7004 6.61987 15.8179C6.74033 15.9354 6.90295 16 7.07762 16C7.16194 16 7.25228 15.9824 7.33058 15.953L10.1554 14.9013C10.4083 14.8249 10.577 14.5958 10.577 14.3137V9.74266C10.577 9.44301 10.6733 9.15511 10.8601 8.91422L10.8661 8.90834L15.8772 2.0047C16.0218 1.81081 16.0398 1.55229 15.9254 1.34078C15.817 1.12926 15.5941 1 15.3532 1Z" stroke="#787878" stroke-width="2" stroke-miterlimit="10"/>
</svg>
