<svg width="18" height="18" viewBox="0 0 18 18" fill="none" xmlns="http://www.w3.org/2000/svg">
<path d="M3.58594 17.0156C3.95312 17.2969 4.40625 17.2031 4.9375 16.8203L9 13.8359L13.0625 16.8203C13.5938 17.2031 14.0547 17.2969 14.4219 17.0156C14.7812 16.7422 14.8594 16.2891 14.6484 15.6719L13.0469 10.8984L17.1484 7.95312C17.6719 7.57812 17.8984 7.16406 17.75 6.72656C17.6016 6.29688 17.1875 6.08594 16.5391 6.09375L11.5078 6.125L9.97656 1.32812C9.78125 0.703125 9.46094 0.367188 9 0.367188C8.54688 0.367188 8.22656 0.703125 8.02344 1.32812L6.49219 6.125L1.46094 6.09375C0.8125 6.08594 0.40625 6.29688 0.257812 6.72656C0.109375 7.16406 0.328125 7.57812 0.859375 7.95312L4.96094 10.8984L3.35156 15.6719C3.14062 16.2891 3.21875 16.7422 3.58594 17.0156Z" fill="#D38E4E"/>
</svg>
