<svg width="18" height="18" viewBox="0 0 18 18" fill="none" xmlns="http://www.w3.org/2000/svg">
<path opacity="0.3" d="M3.57031 17.5234C3.94531 17.8047 4.40625 17.7109 4.9375 17.3281L9 14.3438L13.0547 17.3281C13.5859 17.7109 14.0469 17.8047 14.4219 17.5234C14.7891 17.2422 14.8672 16.7812 14.6562 16.1641L13.0547 11.3984L17.1484 8.46094C17.6797 8.08594 17.8984 7.66406 17.75 7.22656C17.6016 6.78906 17.1875 6.57031 16.5312 6.57812L11.5156 6.61719L9.98438 1.82031C9.78125 1.19531 9.46094 0.859375 9 0.859375C8.53125 0.859375 8.21094 1.19531 8.00781 1.82031L6.48438 6.61719L1.46094 6.57812C0.804688 6.57031 0.390625 6.78906 0.242188 7.21875C0.09375 7.66406 0.320312 8.08594 0.84375 8.46094L4.9375 11.3984L3.33594 16.1641C3.125 16.7812 3.20312 17.2422 3.57031 17.5234Z" fill="#B7B7B7"/>
</svg>
