<svg width="10" height="10" viewBox="0 0 10 10" fill="none" xmlns="http://www.w3.org/2000/svg">
<path d="M0.505859 9.76953C0.710938 9.96875 1.05078 9.96875 1.25 9.76953L5 6.01953L8.75 9.76953C8.94922 9.96875 9.29492 9.97461 9.49414 9.76953C9.69336 9.56445 9.69336 9.23047 9.49414 9.03125L5.74414 5.27539L9.49414 1.52539C9.69336 1.32617 9.69922 0.986328 9.49414 0.787109C9.28906 0.582031 8.94922 0.582031 8.75 0.787109L5 4.53711L1.25 0.787109C1.05078 0.582031 0.705078 0.576172 0.505859 0.787109C0.306641 0.992188 0.306641 1.32617 0.505859 1.52539L4.25586 5.27539L0.505859 9.03125C0.306641 9.23047 0.300781 9.57031 0.505859 9.76953Z" fill="white"/>
</svg>
