<svg width="126" height="28" viewBox="0 0 126 28" fill="none" xmlns="http://www.w3.org/2000/svg">
<path d="M47.4863 23.8141L45.5 4.18719H48.4654L49.8642 19.5522L51.3469 4.18719H54.7039L56.1866 19.5522L57.5854 4.18719H60.2431L58.2568 23.8141H54.4242L52.9974 10.3276L51.5707 23.8141H47.4863Z" fill="#ABBBCF"/>
<path d="M61.5859 8.84308C61.5859 5.70278 63.2365 3.90833 66.2579 3.90833C69.2792 3.90833 70.9298 5.70278 70.9298 8.84308V19.1612C70.9298 22.3015 69.2792 24.096 66.2579 24.096C63.2365 24.096 61.5859 22.3015 61.5859 19.1612V8.84308ZM67.8525 8.64682C67.8525 7.35705 67.3209 6.71217 66.2579 6.71217C65.1948 6.71217 64.6632 7.35705 64.6632 8.64682V19.3575C64.6632 20.6473 65.1948 21.2921 66.2579 21.2921C67.3209 21.2921 67.8525 20.6473 67.8525 19.3575V8.64682Z" fill="#ABBBCF"/>
<path d="M77.4761 23.815V4.18808H80.5534V12.179H83.8545V4.18808H86.9318V23.815H83.8545V14.9829H80.5534V23.815H77.4761Z" fill="#ABBBCF"/>
<path d="M89.2257 23.815V4.18808H97.6184V6.99192H92.303V12.179H96.5273V14.9829H92.303V21.0111H97.6184V23.815H89.2257Z" fill="#ABBBCF"/>
<path d="M99.2689 23.815V4.18808H103.074L106.179 15.9362V4.18808H108.92V23.815H105.815L102.011 9.48734V23.815H99.2689Z" fill="#ABBBCF"/>
<path d="M110.991 8.84308C110.991 5.67474 112.585 3.90833 115.579 3.90833C118.572 3.90833 120.167 5.67474 120.167 8.84308V10.5254H117.257V8.64682C117.257 7.35705 116.726 6.71217 115.663 6.71217C114.6 6.71217 114.068 7.35705 114.068 8.64682V19.3855C114.068 20.6473 114.6 21.2921 115.663 21.2921C116.726 21.2921 117.257 20.6473 117.257 19.3855V15.5443H115.719V12.7404H120.167V19.1612C120.167 22.3296 118.572 24.096 115.579 24.096C112.585 24.096 110.991 22.3296 110.991 19.1612V8.84308Z" fill="#ABBBCF"/>
<path d="M34.7617 10.8195C33.0426 9.82952 30.8954 11.0679 30.8954 13.0479V14.9762V20.9853V22.5031C30.8954 23.469 31.4373 24.3555 32.3004 24.797C34.016 25.6732 36.0493 24.4279 36.0493 22.5031V16.6941V13.6999V13.0479C36.0493 12.1304 35.5591 11.2818 34.7617 10.8195Z" fill="#D38E4E"/>
<path d="M18.8442 13.9077L10.9873 18.4404V15.974V13.4386V8.04006V5.50466C10.9873 3.52118 8.84009 2.2828 7.12095 3.27626C6.32353 3.73505 5.83333 4.58709 5.83333 5.50466V8.04006V18.5508V19.9651V21.0862V22.5005C5.83333 23.4215 6.32353 24.2701 7.12095 24.7289C7.53866 24.9703 7.97707 25.0773 8.40858 25.0738V25.0773C8.41893 25.0773 8.42929 25.0773 8.43965 25.0773C8.44655 25.0773 8.45 25.0773 8.45691 25.0773C10.1484 25.0635 10.9838 24.4253 10.9838 24.4253L20.943 18.5404V18.4887V15.1185C20.943 14.0422 19.7762 13.3696 18.8442 13.9077Z" fill="#5D86AF"/>
<path d="M33.4741 8.29792C34.9612 8.29792 36.1667 7.09328 36.1667 5.60729C36.1667 4.12129 34.9612 2.91666 33.4741 2.91666C31.987 2.91666 30.7815 4.12129 30.7815 5.60729C30.7815 7.09328 31.987 8.29792 33.4741 8.29792Z" fill="#D38E4E"/>
<path d="M25.7034 15.4488L24.5228 14.7692L22.6863 13.7102L22.6759 13.7033C21.6023 13.0859 20.2802 13.0859 19.2101 13.7033L13.8386 16.801C15.8063 15.9731 19.6381 17.8566 20.6772 18.4016C20.76 18.4464 20.8498 18.4706 20.943 18.474V18.4913V18.543L21.9717 19.1363L31.1957 24.5073C31.4511 24.6625 32.1243 24.9971 33.2289 25.0661C33.2876 25.073 33.3463 25.073 33.405 25.0764C33.4878 25.0799 33.5672 25.0833 33.6535 25.0833L33.657 25.073C34.9342 24.9798 36.0527 23.9312 36.0527 22.5031V21.4165L25.7034 15.4488Z" fill="#DCA46E"/>
</svg>
