<svg width="20" height="20" viewBox="0 0 20 20" fill="none" xmlns="http://www.w3.org/2000/svg">
<g opacity="0.24">
<path d="M10 15.9365C15.5508 15.9365 19.2969 11.459 19.2969 10.0713C19.2969 8.69043 15.5439 4.21289 10 4.21289C4.53125 4.21289 0.703125 8.69043 0.703125 10.0713C0.703125 11.459 4.52441 15.9365 10 15.9365ZM10.0068 13.8037C7.92188 13.8037 6.26074 12.1016 6.25391 10.0781C6.24707 7.98633 7.92188 6.3457 10.0068 6.3457C12.0781 6.3457 13.7529 7.99316 13.7529 10.0781C13.7529 12.1016 12.0781 13.8037 10.0068 13.8037ZM10.0068 11.4658C10.7725 11.4658 11.4082 10.8369 11.4082 10.0781C11.4082 9.3125 10.7725 8.67676 10.0068 8.67676C9.22754 8.67676 8.59863 9.3125 8.59863 10.0781C8.59863 10.8369 9.22754 11.4658 10.0068 11.4658Z" fill="#26252F"/>
</g>
</svg>
