<svg width="20" height="20" viewBox="0 0 20 20" fill="none" xmlns="http://www.w3.org/2000/svg">
<g opacity="0.24">
<path d="M10 15.9912C15.6055 15.9912 19.3857 11.4727 19.3857 10.0713C19.3857 8.66992 15.5986 4.1582 10 4.1582C4.47656 4.1582 0.607422 8.66992 0.607422 10.0713C0.607422 11.4727 4.46973 15.9912 10 15.9912ZM10 14.6787C5.63184 14.6787 2.15918 11.0283 2.15918 10.0713C2.15918 9.27148 5.63184 5.4707 10 5.4707C14.3613 5.4707 17.8408 9.27148 17.8408 10.0713C17.8408 11.0283 14.3613 14.6787 10 14.6787ZM10 13.7559C12.0508 13.7559 13.6914 12.0811 13.6914 10.0713C13.6914 8.01367 12.0508 6.39355 10 6.39355C7.94238 6.39355 6.29492 8.01367 6.30176 10.0713C6.31543 12.0811 7.94238 13.7559 10 13.7559ZM10 11.2607C9.33691 11.2607 8.79688 10.7275 8.79688 10.0713C8.79688 9.41504 9.33691 8.88184 10 8.88184C10.6631 8.88184 11.1963 9.41504 11.1963 10.0713C11.1963 10.7275 10.6631 11.2607 10 11.2607Z" fill="#26252F"/>
</g>
</svg>
