<svg width="24" height="17" viewBox="0 0 24 17" fill="none" xmlns="http://www.w3.org/2000/svg">
<path d="M19.0859 16.0156H20.5781C22.2031 16.0156 23.2266 15.0391 23.2266 13.4844V3.29688C23.2266 1.74219 22.2031 0.765625 20.5781 0.765625H19.0859C17.4688 0.765625 16.4453 1.74219 16.4453 3.30469V13.4844C16.4453 15.0391 17.4688 16.0156 19.0859 16.0156ZM19.4531 13.9453C18.9688 13.9453 18.7031 13.6875 18.7031 13.2109V3.57031C18.7031 3.09375 18.9688 2.82812 19.4531 2.82812H20.2188C20.7031 2.82812 20.9688 3.09375 20.9688 3.57031V13.2109C20.9688 13.6875 20.7031 13.9453 20.2109 13.9453H19.4531ZM11.25 16.0156H12.7422C14.3672 16.0156 15.3906 15.0391 15.3906 13.4844V5.5625C15.3906 4.01562 14.3672 3.03906 12.7422 3.03906H11.25C9.63281 3.03906 8.60938 4.01562 8.60938 5.57031V13.4844C8.60938 15.0391 9.63281 16.0156 11.25 16.0156ZM11.6172 13.9453C11.1328 13.9453 10.8672 13.6875 10.8672 13.2109V5.84375C10.8672 5.36719 11.1328 5.10156 11.6172 5.10156H12.3828C12.8672 5.10156 13.1328 5.36719 13.1328 5.84375V13.2109C13.1328 13.6875 12.8672 13.9453 12.375 13.9453H11.6172ZM3.41406 16.0156H4.90625C6.53125 16.0156 7.55469 15.0391 7.55469 13.4844V7.875C7.55469 6.32031 6.53125 5.34375 4.90625 5.34375H3.41406C1.79688 5.34375 0.773438 6.32031 0.773438 7.88281V13.4844C0.773438 15.0391 1.79688 16.0156 3.41406 16.0156ZM3.78125 13.9453C3.29688 13.9453 3.03125 13.6875 3.03125 13.2109V8.14844C3.03125 7.67188 3.29688 7.41406 3.78125 7.41406H4.54688C5.03125 7.41406 5.29688 7.67188 5.29688 8.14844V13.2109C5.29688 13.6875 5.03125 13.9453 4.53906 13.9453H3.78125Z" fill="#B7B7B7"/>
</svg>
