<svg width="24" height="24" viewBox="0 0 24 24" fill="none" xmlns="http://www.w3.org/2000/svg">
<path d="M11.9912 21.6113C17.1855 21.6113 21.4482 17.3574 21.4482 12.1631C21.4482 6.96875 17.1855 2.70605 11.9912 2.70605C6.79688 2.70605 2.54297 6.96875 2.54297 12.1631C2.54297 17.3574 6.79688 21.6113 11.9912 21.6113ZM11.9912 15.3184C9.95215 15.3184 8.35254 16.0215 7.31543 16.9707C6.06738 15.749 5.28516 14.0527 5.28516 12.1631C5.28516 8.44531 8.28223 5.45703 11.9912 5.45703C15.7002 5.45703 18.6973 8.44531 18.6973 12.1631C18.7061 14.0527 17.9238 15.749 16.6758 16.9707C15.6387 16.0215 14.0391 15.3184 11.9912 15.3184ZM11.9912 14.0264C13.7227 14.0352 15.0586 12.5498 15.0586 10.6777C15.0586 8.91113 13.7051 7.39062 11.9912 7.39062C10.2773 7.39062 8.91504 8.91113 8.93262 10.6777C8.93262 12.5498 10.2598 14.0176 11.9912 14.0264Z" fill="#B7B7B7"/>
</svg>
