<svg width="24" height="24" viewBox="0 0 24 24" fill="none" xmlns="http://www.w3.org/2000/svg">
<path d="M7.89648 21.5508H15.1738C16.7295 21.5508 17.7578 20.5225 17.7578 18.9932V4.29785C17.7578 2.75977 16.7295 1.74023 15.1738 1.74023H7.89648C6.30566 1.74023 5.2334 2.75977 5.2334 4.28906V18.9932C5.2334 20.5225 6.30566 21.5508 7.89648 21.5508ZM8.29199 19.4414C7.63281 19.4414 7.24609 19.0811 7.24609 18.4395V4.85156C7.24609 4.20996 7.63281 3.84082 8.29199 3.84082H8.66113V4.30664C8.66113 4.70215 8.91602 4.97461 9.31152 4.97461H13.6885C14.084 4.97461 14.3477 4.70215 14.3477 4.30664V3.84082H14.708C15.3584 3.84082 15.7539 4.21875 15.7539 4.85156V18.4307C15.7539 19.0723 15.3584 19.4414 14.708 19.4414H8.29199ZM9.12695 18.7119H13.873C14.1455 18.7119 14.3477 18.5273 14.3477 18.2373C14.3477 17.9561 14.1455 17.7627 13.873 17.7627H9.12695C8.85449 17.7627 8.66113 17.9561 8.66113 18.2373C8.66113 18.5273 8.85449 18.7119 9.12695 18.7119Z" fill="#B7B7B7"/>
</svg>
