<svg width="24" height="24" viewBox="0 0 24 24" fill="none" xmlns="http://www.w3.org/2000/svg">
<path d="M12 20.8477C17.0361 20.8477 21.1846 16.6904 21.1846 11.6543C21.1846 6.61816 17.0273 2.46973 12 2.46973C6.96387 2.46973 2.81543 6.61816 2.81543 11.6543C2.81543 16.6904 6.96387 20.8477 12 20.8477ZM11.7803 13.4209C11.1211 13.4209 10.7607 13.1309 10.7607 12.5596V12.4805C10.7607 11.707 11.2266 11.2588 11.877 10.8018C12.6328 10.2744 13.0107 9.98438 13.0107 9.46582C13.0107 8.9209 12.5977 8.56055 11.9648 8.56055C11.4902 8.56055 11.1475 8.79785 10.8486 9.21973C10.585 9.50098 10.418 9.78223 9.87305 9.78223C9.3457 9.78223 8.97656 9.44824 8.97656 8.98242C8.97656 8.79785 9.02051 8.63086 9.08203 8.47266C9.39844 7.59375 10.4971 6.89941 12.0703 6.89941C13.7754 6.89941 15.1729 7.82227 15.1729 9.36035C15.1729 10.3975 14.6279 10.916 13.7051 11.5137C13.1514 11.874 12.7998 12.1816 12.7471 12.6211C12.7383 12.6562 12.7383 12.6914 12.7383 12.7266C12.6855 13.1221 12.3164 13.4209 11.7803 13.4209ZM11.7627 16.3125C11.1211 16.3125 10.5938 15.873 10.5938 15.249C10.5938 14.625 11.1123 14.1855 11.7627 14.1855C12.4219 14.1855 12.9229 14.625 12.9229 15.249C12.9229 15.8818 12.4131 16.3125 11.7627 16.3125Z" fill="#B7B7B7"/>
</svg>
