<svg width="24" height="24" viewBox="0 0 24 24" fill="none" xmlns="http://www.w3.org/2000/svg">
<path d="M13.8457 4.5166C13.9951 4.5166 14.1094 4.41113 14.127 4.25293C14.3379 2.8291 14.3467 2.82031 15.8057 2.56543C15.9902 2.53906 16.0957 2.43359 16.0957 2.28418C16.0957 2.12598 15.9902 2.0293 15.832 1.99414C14.3291 1.69531 14.3291 1.69531 14.127 0.31543C14.1094 0.157227 13.9951 0.0429688 13.8457 0.0429688C13.6875 0.0429688 13.582 0.157227 13.5645 0.306641C13.3447 1.75684 13.3535 1.76562 11.8594 1.99414C11.71 2.02051 11.5957 2.12598 11.5957 2.28418C11.5957 2.43359 11.7012 2.53906 11.8506 2.56543C13.3535 2.87305 13.3447 2.86426 13.5645 4.26172C13.582 4.41113 13.6875 4.5166 13.8457 4.5166ZM11.042 21.1455C14.6719 21.1455 17.8535 19.0625 19.3125 15.8018C19.6816 14.9844 19.5586 14.3516 19.1807 14C18.8115 13.6484 18.1787 13.5781 17.5195 13.8857C16.8691 14.1934 16.0078 14.3604 15.1289 14.3604C11.3145 14.3604 8.90625 12.0664 8.90625 8.34863C8.90625 7.33789 9.13477 6.33594 9.45117 5.59766C9.76758 4.85059 9.72363 4.29688 9.38086 3.91895C9.00293 3.49707 8.35254 3.45312 7.61426 3.75195C4.23926 5.10547 2.0332 8.44531 2.0332 12.1455C2.0332 17.3135 5.82129 21.1455 11.042 21.1455ZM18.1348 10.9766C18.3721 10.9766 18.5566 10.8096 18.5918 10.5459C18.8643 8.27832 18.9346 8.19922 21.2725 7.84766C21.5625 7.8125 21.7295 7.63672 21.7295 7.39062C21.7295 7.15332 21.5625 6.98633 21.3252 6.93359C18.9258 6.43262 18.8643 6.48535 18.5918 4.23535C18.5566 3.98047 18.3721 3.80469 18.1348 3.80469C17.8887 3.80469 17.7041 3.98047 17.6689 4.22656C17.3789 6.56445 17.3262 6.61719 14.9443 6.93359C14.707 6.96875 14.5312 7.15332 14.5312 7.39062C14.5312 7.62793 14.6982 7.80371 14.9355 7.84766C17.3438 8.35742 17.3789 8.31348 17.6689 10.5723C17.7041 10.8096 17.8975 10.9766 18.1348 10.9766ZM11.0508 18.3066C7.46484 18.3066 4.85449 15.6699 4.85449 12.1191C4.85449 10.5898 5.42578 8.99902 6.4541 7.87402C6.40137 8.17285 6.36621 8.5332 6.36621 8.88477C6.36621 13.7451 9.53027 16.8652 14.5049 16.8652C14.7246 16.8652 14.9355 16.8389 15.0586 16.8125C14.0303 17.7881 12.5537 18.3066 11.0508 18.3066Z" fill="#B7B7B7"/>
</svg>
