<svg width="24" height="24" viewBox="0 0 24 24" fill="none" xmlns="http://www.w3.org/2000/svg">
<path d="M4.4248 17.4287H18.5752C19.5332 17.4287 20.1309 16.875 20.1309 16.0576C20.1309 15.0908 19.3223 14.2822 18.5137 13.5439C17.8633 12.9463 17.7227 11.6719 17.5732 10.3799C17.3887 7.28613 16.3955 5.05371 14.1807 4.25391C13.7939 3.08496 12.792 2.20605 11.5 2.20605C10.1992 2.20605 9.20605 3.08496 8.81934 4.25391C6.5957 5.05371 5.60254 7.28613 5.41797 10.3799C5.26855 11.6719 5.13672 12.9463 4.48633 13.5439C3.66895 14.2822 2.86035 15.0908 2.86035 16.0576C2.86035 16.875 3.4668 17.4287 4.4248 17.4287ZM11.5 21.1289C13.1084 21.1289 14.2773 19.9951 14.3916 18.668H8.59961C8.71387 19.9951 9.8916 21.1289 11.5 21.1289Z" fill="#B7B7B7"/>
</svg>
