<svg width="24" height="24" viewBox="0 0 24 24" fill="none" xmlns="http://www.w3.org/2000/svg">
<path d="M19.4165 11.8052C19.4165 11.5898 19.3242 11.3569 19.1836 11.2163L16.3579 8.39062C16.1909 8.22803 15.9932 8.14014 15.8042 8.14014C15.3208 8.14014 15.0088 8.46973 15.0088 8.896C15.0088 9.14648 15.123 9.32666 15.2725 9.47607L16.2832 10.478L16.894 11.0449L16.002 11.001H11.4272C10.9175 11.001 10.5791 11.3218 10.5791 11.8052C10.5791 12.2886 10.9175 12.6094 11.4272 12.6094H16.002L16.894 12.5654L16.2832 13.1323L15.2725 14.1299C15.123 14.2749 15.0088 14.4595 15.0088 14.71C15.0088 15.1362 15.3208 15.4658 15.8042 15.4658C15.9932 15.4658 16.1909 15.3779 16.3535 15.2153L19.1836 12.394C19.3242 12.2534 19.4165 12.0205 19.4165 11.8052Z" fill="#FF5722"/>
<path d="M13 20H6C5.44772 20 5 19.5523 5 19V5C5 4.44772 5.44772 4 6 4H13" stroke="#FF5722" stroke-width="1.5" stroke-linecap="round"/>
</svg>
