<svg width="120" height="40" viewBox="0 0 120 40" fill="none" xmlns="http://www.w3.org/2000/svg">
<g clip-path="url(#clip0_578_15324)">
<path d="M110.444 0.00013H9.56145C9.19372 0.00013 8.8304 0.00013 8.46364 0.00213C8.15663 0.00413 7.85207 0.00994 7.54211 0.01483C6.86874 0.0227318 6.19695 0.0818063 5.53259 0.19154C4.86915 0.303663 4.2265 0.515046 3.62637 0.81854C3.02697 1.1246 2.47929 1.5223 2.00318 1.9972C1.52457 2.47077 1.12561 3.01815 0.82165 3.61829C0.516847 4.21724 0.305496 4.85907 0.194896 5.52161C0.083244 6.18332 0.0231632 6.85265 0.0151925 7.52361C0.00588648 7.83021 0.00490373 8.13783 0 8.44447V31.5587C0.00490373 31.8692 0.00588648 32.17 0.0151925 32.4806C0.0231657 33.1516 0.0832464 33.8209 0.194896 34.4825C0.30519 35.1455 0.516554 35.7877 0.82165 36.3868C1.12548 36.985 1.52449 37.5302 2.00318 38.0011C2.47748 38.4781 3.02552 38.8761 3.62637 39.1798C4.2265 39.4841 4.86908 39.6968 5.53259 39.8106C6.19707 39.9195 6.86879 39.9786 7.54211 39.9874C7.85207 39.9942 8.15663 39.9981 8.46364 39.9981C8.83039 40.0001 9.19374 40.0001 9.56145 40.0001H110.444C110.804 40.0001 111.171 40.0001 111.531 39.9981C111.837 39.9981 112.15 39.9942 112.455 39.9874C113.128 39.9791 113.798 39.92 114.461 39.8106C115.127 39.696 115.772 39.4834 116.375 39.1798C116.975 38.8759 117.522 38.478 117.996 38.0011C118.474 37.5284 118.874 36.9836 119.181 36.3868C119.484 35.7872 119.693 35.1451 119.802 34.4825C119.914 33.8208 119.976 33.1516 119.988 32.4806C119.992 32.17 119.992 31.8692 119.992 31.5587C120 31.1954 120 30.8341 120 30.4649V9.53626C120 9.17005 120 8.80677 119.992 8.44447C119.992 8.13783 119.992 7.83021 119.988 7.52357C119.976 6.85255 119.914 6.18337 119.802 5.52157C119.693 4.85941 119.484 4.21763 119.181 3.61825C118.562 2.41533 117.581 1.43616 116.375 0.81845C115.772 0.515697 115.127 0.30437 114.461 0.19145C113.798 0.0812328 113.128 0.0221378 112.455 0.01469C112.15 0.00981 111.837 0.00395 111.531 0.002C111.171 0 110.804 0 110.444 0V0.00013Z" fill="#A6A6A6"/>
<path d="M8.46856 39.125C8.16303 39.125 7.86487 39.1211 7.56174 39.1143C6.93376 39.1061 6.30725 39.0516 5.68735 38.9512C5.10932 38.8519 4.54937 38.6673 4.02596 38.4033C3.50735 38.1415 3.03433 37.7983 2.62504 37.3867C2.20981 36.98 1.86412 36.5082 1.60166 35.9902C1.33631 35.4688 1.15267 34.9099 1.05714 34.333C0.953972 33.7131 0.898156 33.0863 0.890169 32.458C0.883812 32.2471 0.875488 31.5449 0.875488 31.5449V8.44434C0.875488 8.44434 0.884353 7.75293 0.89022 7.5498C0.897867 6.92248 0.953358 6.29665 1.05621 5.67773C1.15192 5.09925 1.3357 4.53875 1.6012 4.01563C1.8627 3.49794 2.20647 3.02586 2.61919 2.61768C3.03145 2.20562 3.50597 1.8606 4.02547 1.59521C4.54767 1.33209 5.10657 1.14873 5.68343 1.05127C6.30537 0.949836 6.93405 0.894996 7.5642 0.88721L8.46906 0.875H111.526L112.442 0.8877C113.066 0.895099 113.689 0.94945 114.305 1.05029C114.888 1.14898 115.453 1.33362 115.981 1.59814C117.022 2.13299 117.869 2.97916 118.403 4.01807C118.664 4.53758 118.845 5.09351 118.939 5.66699C119.044 6.29099 119.102 6.92174 119.114 7.5542C119.117 7.8374 119.117 8.1416 119.117 8.44434C119.125 8.81934 119.125 9.17627 119.125 9.53613V30.4648C119.125 30.8281 119.125 31.1826 119.117 31.54C119.117 31.8652 119.117 32.1631 119.113 32.4697C119.101 33.0909 119.044 33.7104 118.941 34.3232C118.848 34.9043 118.665 35.4675 118.4 35.9932C118.136 36.5056 117.792 36.9733 117.381 37.3789C116.972 37.7927 116.498 38.1379 115.978 38.4014C115.451 38.6674 114.887 38.8527 114.305 38.9512C113.686 39.0522 113.059 39.1067 112.431 39.1143C112.137 39.1211 111.83 39.125 111.531 39.125L110.444 39.127L8.46856 39.125Z" fill="black"/>
<path d="M24.8384 20.3003C24.8492 19.4657 25.0715 18.6473 25.4847 17.9213C25.8978 17.1954 26.4885 16.5854 27.2015 16.1483C26.7485 15.5031 26.1509 14.9722 25.4561 14.5976C24.7614 14.2231 23.9886 14.0152 23.1992 13.9906C21.5152 13.8143 19.8827 14.9954 19.0246 14.9954C18.1499 14.9954 16.8287 14.0081 15.406 14.0373C14.4857 14.0669 13.5889 14.3338 12.8028 14.8118C12.0167 15.2899 11.3682 15.9629 10.9205 16.7651C8.98105 20.1136 10.4277 25.0346 12.2855 27.7412C13.215 29.0666 14.3013 30.547 15.7228 30.4945C17.1137 30.437 17.6332 29.61 19.3122 29.61C20.9756 29.61 21.463 30.4945 22.9133 30.4611C24.4058 30.437 25.3462 29.1299 26.2431 27.792C26.911 26.8476 27.4249 25.8039 27.7658 24.6995C26.8987 24.3338 26.1587 23.7216 25.6381 22.9393C25.1175 22.157 24.8394 21.2392 24.8384 20.3003Z" fill="white"/>
<path d="M22.0991 12.2113C22.9129 11.2371 23.3138 9.98494 23.2167 8.7207C21.9734 8.85092 20.8249 9.44348 20.0001 10.3803C19.5968 10.838 19.288 11.3704 19.0912 11.9472C18.8944 12.524 18.8135 13.1337 18.8532 13.7417C19.4751 13.7481 20.0903 13.6137 20.6525 13.3486C21.2148 13.0835 21.7094 12.6946 22.0991 12.2113Z" fill="white"/>
<path d="M42.421 27.1397H37.6743L36.5344 30.4961H34.5239L39.0199 18.0781H41.1088L45.6047 30.4961H43.56L42.421 27.1397ZM38.166 25.5908H41.9285L40.0737 20.1436H40.0218L38.166 25.5908Z" fill="white"/>
<path d="M55.3145 25.9695C55.3145 28.7829 53.8044 30.5905 51.5256 30.5905C50.9483 30.6207 50.3742 30.4881 49.869 30.2079C49.3638 29.9278 48.9479 29.5114 48.6689 29.0065H48.6258V33.4909H46.7622V21.4421H48.5661V22.948H48.6004C48.8922 22.4455 49.3151 22.0313 49.8241 21.7495C50.3332 21.4676 50.9093 21.3287 51.4913 21.3474C53.7956 21.3474 55.3145 23.1638 55.3145 25.9695ZM53.399 25.9695C53.399 24.1365 52.449 22.9314 50.9997 22.9314C49.5758 22.9314 48.618 24.1618 48.618 25.9695C48.618 27.7937 49.5758 29.0154 50.9997 29.0154C52.4491 29.0154 53.399 27.8191 53.399 25.9695Z" fill="white"/>
<path d="M65.3074 25.9694C65.3074 28.7829 63.7973 30.5905 61.5185 30.5905C60.9412 30.6206 60.3671 30.488 59.8619 30.2079C59.3567 29.9278 58.9408 29.5114 58.6619 29.0065H58.6187V33.4909H56.7551V21.4421H58.559V22.948H58.5933C58.885 22.4455 59.308 22.0313 59.817 21.7495C60.3261 21.4676 60.9022 21.3287 61.4842 21.3474C63.7885 21.3474 65.3074 23.1638 65.3074 25.9694ZM63.3919 25.9694C63.3919 24.1364 62.442 22.9314 60.9926 22.9314C59.5687 22.9314 58.6109 24.1618 58.6109 25.9694C58.6109 27.7937 59.5687 29.0153 60.9926 29.0153C62.442 29.0153 63.3919 27.8191 63.3919 25.9694H63.3919Z" fill="white"/>
<path d="M71.9117 27.0362C72.0498 28.2676 73.2495 29.0762 74.8888 29.0762C76.4596 29.0762 77.5898 28.2676 77.5898 27.1572C77.5898 26.1934 76.9081 25.6162 75.2943 25.2207L73.6804 24.833C71.3937 24.2822 70.3321 23.2158 70.3321 21.4854C70.3321 19.3428 72.2046 17.8711 74.8634 17.8711C77.4947 17.8711 79.2986 19.3428 79.3594 21.4854H77.4781C77.3655 20.2461 76.3382 19.4981 74.8369 19.4981C73.3356 19.4981 72.3083 20.2549 72.3083 21.3565C72.3083 22.2344 72.9645 22.751 74.5696 23.1465L75.9416 23.4824C78.4966 24.0849 79.5581 25.1084 79.5581 26.9248C79.5581 29.248 77.7023 30.7031 74.7507 30.7031C71.9891 30.7031 70.1245 29.2822 70.004 27.0361L71.9117 27.0362Z" fill="white"/>
<path d="M83.5802 19.3008V21.4434H85.3067V22.915H83.5802V27.9062C83.5802 28.6816 83.9259 29.043 84.6849 29.043C84.8898 29.0394 85.0945 29.0251 85.2979 29V30.4629C84.9567 30.5264 84.6099 30.5552 84.2628 30.5488C82.4246 30.5488 81.7078 29.8603 81.7078 28.1045V22.915H80.3877V21.4434H81.7078V19.3008H83.5802Z" fill="white"/>
<path d="M86.3066 25.9707C86.3066 23.1221 87.9891 21.332 90.6126 21.332C93.245 21.332 94.9196 23.122 94.9196 25.9707C94.9196 28.8272 93.2538 30.6094 90.6126 30.6094C87.9724 30.6094 86.3066 28.8271 86.3066 25.9707ZM93.0207 25.9707C93.0207 24.0166 92.1227 22.8633 90.6126 22.8633C89.1025 22.8633 88.2055 24.0254 88.2055 25.9707C88.2055 27.9326 89.1025 29.0772 90.6126 29.0772C92.1227 29.0772 93.0207 27.9326 93.0207 25.9707H93.0207Z" fill="white"/>
<path d="M96.4561 21.442H98.2335V22.983H98.2766C98.3969 22.5017 98.6796 22.0764 99.0773 21.7785C99.475 21.4806 99.9634 21.3284 100.46 21.3473C100.675 21.3465 100.889 21.3698 101.099 21.4166V23.1549C100.828 23.0723 100.545 23.0343 100.262 23.0426C99.9909 23.0316 99.721 23.0792 99.4704 23.1821C99.2199 23.285 98.9946 23.4408 98.8102 23.6386C98.6257 23.8365 98.4863 24.0719 98.4016 24.3286C98.317 24.5852 98.289 24.8571 98.3197 25.1256V30.4957H96.4561L96.4561 21.442Z" fill="white"/>
<path d="M109.691 27.8379C109.441 29.4814 107.836 30.6094 105.782 30.6094C103.141 30.6094 101.501 28.8447 101.501 26.0137C101.501 23.1738 103.15 21.332 105.704 21.332C108.216 21.332 109.795 23.0527 109.795 25.7978V26.4346H103.383V26.5469C103.353 26.8801 103.395 27.2157 103.505 27.5316C103.616 27.8474 103.793 28.1362 104.024 28.3787C104.255 28.6213 104.535 28.8121 104.845 28.9384C105.156 29.0647 105.49 29.1236 105.825 29.1113C106.265 29.1525 106.707 29.0508 107.085 28.8213C107.463 28.5919 107.756 28.247 107.922 27.8379L109.691 27.8379ZM103.392 25.1357H107.931C107.947 24.8361 107.902 24.5363 107.797 24.2551C107.692 23.9739 107.53 23.7174 107.321 23.5016C107.111 23.2858 106.86 23.1155 106.582 23.0013C106.303 22.8871 106.004 22.8314 105.704 22.8379C105.4 22.8361 105.099 22.8942 104.819 23.009C104.538 23.1237 104.282 23.2928 104.067 23.5064C103.853 23.72 103.682 23.974 103.566 24.2537C103.45 24.5333 103.391 24.8331 103.392 25.1357V25.1357Z" fill="white"/>
<path d="M37.9324 8.73138C38.3231 8.70342 38.7152 8.76228 39.0803 8.90371C39.4455 9.04515 39.7746 9.26563 40.0439 9.54925C40.3133 9.83288 40.5161 10.1726 40.6379 10.5438C40.7596 10.9151 40.7972 11.3087 40.7479 11.6962C40.7479 13.6025 39.7148 14.6982 37.9324 14.6982H35.7711V8.73138H37.9324ZM36.7005 13.8544H37.8286C38.1078 13.871 38.3872 13.8254 38.6465 13.7208C38.9057 13.6161 39.1383 13.4552 39.3274 13.2496C39.5164 13.0441 39.6571 12.7991 39.7392 12.5324C39.8213 12.2658 39.8427 11.9843 39.8019 11.7084C39.8397 11.4335 39.8161 11.1538 39.7328 10.8891C39.6494 10.6244 39.5084 10.3814 39.3198 10.1775C39.1312 9.97358 38.8997 9.81378 38.6419 9.70954C38.3841 9.6053 38.1064 9.55922 37.8286 9.57459H36.7005V13.8544Z" fill="white"/>
<path d="M41.7978 12.4458C41.7694 12.1498 41.8034 11.8513 41.8975 11.5692C41.9916 11.2871 42.1437 11.0278 42.3442 10.8078C42.5447 10.5878 42.7891 10.4121 43.0618 10.2918C43.3344 10.1715 43.6292 10.1094 43.9273 10.1094C44.2254 10.1094 44.5202 10.1715 44.7928 10.2918C45.0654 10.4121 45.3098 10.5878 45.5103 10.8078C45.7108 11.0278 45.863 11.2871 45.9571 11.5692C46.0512 11.8513 46.0852 12.1498 46.0568 12.4458C46.0857 12.742 46.0522 13.041 45.9583 13.3235C45.8645 13.606 45.7124 13.8658 45.5118 14.0862C45.3113 14.3067 45.0667 14.4828 44.7938 14.6033C44.5209 14.7239 44.2257 14.7861 43.9273 14.7861C43.6288 14.7861 43.3337 14.7239 43.0608 14.6033C42.7879 14.4828 42.5433 14.3067 42.3428 14.0862C42.1422 13.8658 41.9901 13.606 41.8963 13.3235C41.8024 13.041 41.7689 12.742 41.7978 12.4458ZM45.1402 12.4458C45.1402 11.4697 44.7004 10.8989 43.9288 10.8989C43.1541 10.8989 42.7184 11.4697 42.7184 12.4458C42.7184 13.4297 43.1542 13.9961 43.9288 13.9961C44.7005 13.996 45.1402 13.4257 45.1402 12.4458H45.1402Z" fill="white"/>
<path d="M51.7181 14.6982H50.7937L49.8604 11.3818H49.7899L48.8605 14.6982H47.9449L46.7002 10.1953H47.6041L48.413 13.6313H48.4796L49.408 10.1953H50.2629L51.1913 13.6313H51.2618L52.0668 10.1953H52.9579L51.7181 14.6982Z" fill="white"/>
<path d="M54.0048 10.1949H54.8626V10.9102H54.9292C55.0422 10.6533 55.2327 10.4379 55.4743 10.2941C55.7158 10.1503 55.9964 10.0852 56.2767 10.1079C56.4965 10.0915 56.7171 10.1245 56.9223 10.2046C57.1274 10.2847 57.3119 10.4098 57.462 10.5707C57.6121 10.7315 57.724 10.924 57.7894 11.1338C57.8548 11.3436 57.872 11.5654 57.8397 11.7827V14.6977H56.9486V12.0059C56.9486 11.2823 56.6332 10.9224 55.9741 10.9224C55.825 10.9155 55.6761 10.9408 55.5376 10.9966C55.3992 11.0525 55.2745 11.1375 55.1721 11.2459C55.0696 11.3543 54.9919 11.4834 54.9443 11.6246C54.8966 11.7657 54.8801 11.9154 54.8959 12.0635V14.6978H54.0048L54.0048 10.1949Z" fill="white"/>
<path d="M59.2598 8.4375H60.1509V14.6982H59.2598V8.4375Z" fill="white"/>
<path d="M61.3897 12.4439C61.3613 12.1479 61.3953 11.8494 61.4894 11.5673C61.5835 11.2852 61.7357 11.0259 61.9363 10.8059C62.1368 10.5859 62.3812 10.4101 62.6538 10.2898C62.9265 10.1696 63.2213 10.1074 63.5194 10.1074C63.8176 10.1074 64.1124 10.1696 64.385 10.2898C64.6576 10.4101 64.9021 10.5859 65.1026 10.8059C65.3031 11.0259 65.4553 11.2852 65.5494 11.5673C65.6436 11.8494 65.6775 12.1479 65.6492 12.4439C65.6781 12.7401 65.6445 13.0391 65.5506 13.3216C65.4567 13.6042 65.3046 13.864 65.104 14.0844C64.9034 14.3048 64.6589 14.4809 64.386 14.6014C64.1131 14.722 63.8179 14.7842 63.5194 14.7842C63.221 14.7842 62.9258 14.722 62.6529 14.6014C62.38 14.4809 62.1354 14.3048 61.9348 14.0844C61.7343 13.864 61.5821 13.6042 61.4883 13.3216C61.3944 13.0391 61.3608 12.7401 61.3897 12.4439ZM64.732 12.4439C64.732 11.4678 64.2923 10.897 63.5207 10.897C62.746 10.897 62.3103 11.4678 62.3103 12.4439C62.3103 13.4278 62.7461 13.9942 63.5207 13.9942C64.2923 13.9942 64.732 13.4239 64.732 12.4439H64.732Z" fill="white"/>
<path d="M66.5874 13.4258C66.5874 12.6152 67.1926 12.1479 68.2669 12.0815L69.4901 12.0112V11.6226C69.4901 11.147 69.1747 10.8784 68.5656 10.8784C68.0681 10.8784 67.7234 11.0605 67.6245 11.3789H66.7617C66.8528 10.6055 67.5824 10.1094 68.6067 10.1094C69.7388 10.1094 70.3773 10.6714 70.3773 11.6226V14.6992H69.5194V14.0664H69.4489C69.3058 14.2934 69.1048 14.4784 68.8666 14.6027C68.6283 14.7269 68.3612 14.7858 68.0926 14.7734C67.903 14.7931 67.7114 14.7729 67.5302 14.7142C67.3489 14.6555 67.182 14.5596 67.0402 14.4326C66.8983 14.3056 66.7848 14.1504 66.7068 13.977C66.6288 13.8036 66.5881 13.6158 66.5874 13.4258ZM69.4901 13.041V12.6645L68.3874 12.7349C67.7655 12.7764 67.4835 12.9873 67.4835 13.3843C67.4835 13.7895 67.836 14.0254 68.3208 14.0254C68.4628 14.0397 68.6063 14.0254 68.7427 13.9833C68.8791 13.9412 69.0056 13.8722 69.1147 13.7804C69.2238 13.6885 69.3132 13.5757 69.3777 13.4487C69.4422 13.3217 69.4804 13.183 69.4901 13.041Z" fill="white"/>
<path d="M71.5485 12.4448C71.5485 11.022 72.282 10.1206 73.4228 10.1206C73.7051 10.1077 73.9851 10.1751 74.2303 10.315C74.4756 10.4548 74.6758 10.6615 74.8076 10.9106H74.8742V8.4375H75.7653V14.6982H74.9114V13.9868H74.8409C74.6989 14.2343 74.4917 14.4383 74.2417 14.5768C73.9918 14.7153 73.7086 14.783 73.4229 14.7724C72.2741 14.7725 71.5485 13.8711 71.5485 12.4448ZM72.469 12.4448C72.469 13.3999 72.9205 13.9746 73.6755 13.9746C74.4266 13.9746 74.8909 13.3916 74.8909 12.4487C74.8909 11.5103 74.4218 10.919 73.6755 10.919C72.9254 10.919 72.469 11.4976 72.469 12.4448H72.469Z" fill="white"/>
<path d="M79.4525 12.4458C79.4241 12.1498 79.458 11.8513 79.5521 11.5692C79.6462 11.2871 79.7984 11.0278 79.9989 10.8078C80.1994 10.5878 80.4438 10.4121 80.7164 10.2918C80.989 10.1715 81.2838 10.1094 81.582 10.1094C81.8801 10.1094 82.1749 10.1715 82.4475 10.2918C82.7201 10.4121 82.9645 10.5878 83.165 10.8078C83.3655 11.0278 83.5177 11.2871 83.6118 11.5692C83.7059 11.8513 83.7398 12.1498 83.7114 12.4458C83.7404 12.742 83.7068 13.041 83.613 13.3235C83.5191 13.606 83.367 13.8658 83.1665 14.0862C82.9659 14.3067 82.7213 14.4828 82.4485 14.6033C82.1756 14.7239 81.8804 14.7861 81.582 14.7861C81.2835 14.7861 80.9883 14.7239 80.7154 14.6033C80.4426 14.4828 80.198 14.3067 79.9974 14.0862C79.7969 13.8658 79.6448 13.606 79.5509 13.3235C79.4571 13.041 79.4235 12.742 79.4525 12.4458ZM82.7948 12.4458C82.7948 11.4697 82.3551 10.8989 81.5834 10.8989C80.8088 10.8989 80.373 11.4697 80.373 12.4458C80.373 13.4297 80.8088 13.9961 81.5834 13.9961C82.3551 13.996 82.7948 13.4257 82.7948 12.4458Z" fill="white"/>
<path d="M84.9072 10.1949H85.7651V10.9102H85.8317C85.9447 10.6533 86.1352 10.4379 86.3768 10.2941C86.6183 10.1503 86.8988 10.0852 87.1792 10.1079C87.3989 10.0915 87.6196 10.1245 87.8247 10.2046C88.0299 10.2847 88.2144 10.4098 88.3645 10.5707C88.5146 10.7315 88.6265 10.924 88.6919 11.1338C88.7572 11.3436 88.7744 11.5654 88.7422 11.7827V14.6977H87.851V12.0059C87.851 11.2823 87.5357 10.9224 86.8766 10.9224C86.7274 10.9155 86.5785 10.9408 86.4401 10.9966C86.3016 11.0525 86.1769 11.1375 86.0745 11.2459C85.9721 11.3543 85.8944 11.4834 85.8467 11.6246C85.7991 11.7657 85.7826 11.9154 85.7984 12.0635V14.6978H84.9072V10.1949Z" fill="white"/>
<path d="M93.7777 9.07422V10.2158H94.756V10.9644H93.7777V13.2798C93.7777 13.7515 93.9726 13.958 94.4162 13.958C94.5298 13.9576 94.6432 13.9508 94.756 13.9375V14.6777C94.596 14.7063 94.4338 14.7215 94.2713 14.7231C93.2802 14.7231 92.8856 14.3755 92.8856 13.5073V10.9643H92.1687V10.2158H92.8856V9.07422H93.7777Z" fill="white"/>
<path d="M95.9734 8.4375H96.8567V10.919H96.9272C97.0457 10.6596 97.2415 10.443 97.4878 10.2987C97.7342 10.1543 98.0192 10.0893 98.3041 10.1123C98.5226 10.1004 98.7411 10.1368 98.944 10.2189C99.1468 10.3009 99.329 10.4266 99.4776 10.5869C99.6261 10.7473 99.7373 10.9383 99.8033 11.1465C99.8693 11.3546 99.8884 11.5747 99.8592 11.791V14.6982H98.9672V12.0103C98.9672 11.291 98.6312 10.9268 98.0016 10.9268C97.8484 10.9142 97.6943 10.9352 97.5501 10.9883C97.406 11.0413 97.2752 11.1252 97.1669 11.2339C97.0586 11.3426 96.9754 11.4737 96.9232 11.6178C96.871 11.7619 96.851 11.9157 96.8646 12.0683V14.6982H95.9734L95.9734 8.4375Z" fill="white"/>
<path d="M105.055 13.4815C104.934 13.8931 104.672 14.249 104.314 14.4872C103.957 14.7253 103.526 14.8305 103.099 14.7842C102.801 14.7921 102.506 14.7353 102.232 14.6177C101.959 14.5002 101.715 14.3248 101.516 14.1036C101.318 13.8825 101.17 13.6209 101.083 13.3371C100.996 13.0533 100.972 12.754 101.013 12.46C100.973 12.1652 100.998 11.8652 101.084 11.5805C101.171 11.2959 101.318 11.0331 101.516 10.81C101.713 10.587 101.956 10.4088 102.229 10.2876C102.501 10.1664 102.797 10.105 103.095 10.1075C104.351 10.1075 105.109 10.9635 105.109 12.3775V12.6876H101.921V12.7374C101.907 12.9026 101.928 13.069 101.982 13.2257C102.036 13.3825 102.123 13.5262 102.236 13.6476C102.349 13.7691 102.487 13.8656 102.639 13.931C102.792 13.9964 102.957 14.0292 103.123 14.0274C103.336 14.0529 103.552 14.0146 103.744 13.9174C103.935 13.8202 104.093 13.6685 104.198 13.4815L105.055 13.4815ZM101.921 12.0303H104.201C104.213 11.8792 104.192 11.7274 104.141 11.5847C104.09 11.442 104.009 11.3115 103.905 11.2016C103.8 11.0918 103.674 11.005 103.533 10.9468C103.393 10.8886 103.242 10.8604 103.09 10.8638C102.936 10.8619 102.783 10.8908 102.64 10.9487C102.497 11.0067 102.368 11.0925 102.259 11.2012C102.15 11.3099 102.064 11.4393 102.006 11.5817C101.948 11.7241 101.919 11.8766 101.921 12.0303H101.921Z" fill="white"/>
</g>
<defs>
<clipPath id="clip0_578_15324">
<rect width="120" height="40" fill="white"/>
</clipPath>
</defs>
</svg>
