<svg width="120" height="36" viewBox="0 0 120 36" fill="none" xmlns="http://www.w3.org/2000/svg">
<path d="M115.556 36H4.44444C2 36 0 33.975 0 31.5V4.5C0 2.025 2 0 4.44444 0H115.556C118 0 120 2.025 120 4.5V31.5C120 33.975 118 36 115.556 36Z" fill="black"/>
<path d="M115.556 0.72C117.618 0.72 119.289 2.412 119.289 4.5V31.5C119.289 33.588 117.618 35.28 115.556 35.28H4.44444C2.38222 35.28 0.711111 33.588 0.711111 31.5V4.5C0.711111 2.412 2.38222 0.72 4.44444 0.72H115.556V0.72ZM115.556 0H4.44444C2 0 0 2.025 0 4.5V31.5C0 33.975 2 36 4.44444 36H115.556C118 36 120 33.975 120 31.5V4.5C120 2.025 118 0 115.556 0Z" fill="#A6A6A6"/>
<path d="M42.1512 9.21659C42.1512 9.97259 41.9289 10.5756 41.4845 11.0166C40.9867 11.5476 40.3289 11.8176 39.529 11.8176C38.7556 11.8176 38.1067 11.5476 37.5645 11.0076C37.0223 10.4676 36.7556 9.79259 36.7556 9.00059C36.7556 8.19959 37.0223 7.53359 37.5645 6.99359C38.1067 6.45359 38.7556 6.18359 39.529 6.18359C39.9112 6.18359 40.2756 6.25559 40.6223 6.40859C40.9689 6.56159 41.2445 6.75959 41.4578 7.01159L40.9867 7.48859C40.6312 7.06559 40.1512 6.84959 39.529 6.84959C38.969 6.84959 38.4801 7.04759 38.0712 7.45259C37.6623 7.84859 37.4578 8.37059 37.4578 9.00959C37.4578 9.64859 37.6623 10.1706 38.0712 10.5666C38.4801 10.9626 38.969 11.1696 39.529 11.1696C40.1245 11.1696 40.6223 10.9716 41.0223 10.5666C41.2801 10.3056 41.4312 9.93659 41.4667 9.46859H39.529V8.81159H42.1156C42.1334 8.95559 42.1512 9.09059 42.1512 9.21659Z" fill="white" stroke="white" stroke-width="0.2" stroke-miterlimit="10"/>
<path d="M46.2489 6.96678H43.8223V8.67678H46.0089V9.32478H43.8223V11.0348H46.2489V11.7008H43.1378V6.30078H46.2489V6.96678V6.96678Z" fill="white" stroke="white" stroke-width="0.2" stroke-miterlimit="10"/>
<path d="M49.1379 11.7008H48.4534V6.96678H46.9601V6.30078H50.6223V6.96678H49.129V11.7008H49.1379Z" fill="white" stroke="white" stroke-width="0.2" stroke-miterlimit="10"/>
<path d="M53.28 11.7008V6.30078H53.9645V11.7008H53.28Z" fill="white" stroke="white" stroke-width="0.2" stroke-miterlimit="10"/>
<path d="M57.0046 11.7008H56.3201V6.96678H54.8268V6.30078H58.489V6.96678H56.9957V11.7008H57.0046Z" fill="white" stroke="white" stroke-width="0.2" stroke-miterlimit="10"/>
<path d="M65.4311 10.9986C64.9067 11.5476 64.2578 11.8176 63.4756 11.8176C62.6934 11.8176 62.0445 11.5476 61.52 10.9986C60.9956 10.4496 60.7378 9.78359 60.7378 9.00059C60.7378 8.21759 60.9956 7.54259 61.52 7.00259C62.0445 6.45359 62.6934 6.18359 63.4756 6.18359C64.2489 6.18359 64.8978 6.45359 65.4311 7.00259C65.9556 7.55159 66.2222 8.21759 66.2222 9.00059C66.2133 9.79259 65.9556 10.4586 65.4311 10.9986ZM62.0267 10.5486C62.4178 10.9536 62.9067 11.1516 63.4756 11.1516C64.0445 11.1516 64.5333 10.9536 64.9245 10.5486C65.3156 10.1436 65.52 9.63059 65.52 9.00059C65.52 8.37059 65.3245 7.85759 64.9245 7.45259C64.5333 7.04759 64.0445 6.84059 63.4756 6.84059C62.9067 6.84059 62.4178 7.03859 62.0267 7.44359C61.6356 7.85759 61.4311 8.37059 61.4311 9.00059C61.4311 9.63059 61.6356 10.1436 62.0267 10.5486Z" fill="white" stroke="white" stroke-width="0.2" stroke-miterlimit="10"/>
<path d="M67.1823 11.7008V6.30078H68.0178L70.6134 10.5038H70.64L70.6134 9.45978V6.30078H71.2978V11.7008H70.5867L67.8756 7.29978H67.8489L67.8756 8.34378V11.7008H67.1823Z" fill="white" stroke="white" stroke-width="0.2" stroke-miterlimit="10"/>
<path d="M60.5689 19.5757C58.48 19.5757 56.7733 21.1867 56.7733 23.4007C56.7733 25.6057 58.48 27.2257 60.5689 27.2257C62.6578 27.2257 64.3644 25.6057 64.3644 23.4007C64.3644 21.1867 62.6578 19.5757 60.5689 19.5757ZM60.5689 25.7227C59.4222 25.7227 58.4355 24.7687 58.4355 23.4007C58.4355 22.0237 59.4222 21.0787 60.5689 21.0787C61.7155 21.0787 62.7022 22.0237 62.7022 23.4007C62.7022 24.7687 61.7066 25.7227 60.5689 25.7227ZM52.2844 19.5757C50.1955 19.5757 48.4889 21.1867 48.4889 23.4007C48.4889 25.6057 50.1955 27.2257 52.2844 27.2257C54.3733 27.2257 56.08 25.6057 56.08 23.4007C56.08 21.1867 54.3733 19.5757 52.2844 19.5757ZM52.2844 25.7227C51.1378 25.7227 50.1511 24.7687 50.1511 23.4007C50.1511 22.0237 51.1378 21.0787 52.2844 21.0787C53.4311 21.0787 54.4178 22.0237 54.4178 23.4007C54.4178 24.7687 53.4311 25.7227 52.2844 25.7227ZM42.4355 20.7547V22.3747H46.2755C46.16 23.2837 45.8578 23.9587 45.4044 24.4177C44.8444 24.9847 43.9733 25.6057 42.4444 25.6057C40.08 25.6057 38.2311 23.6797 38.2311 21.2857C38.2311 18.8917 40.08 16.9657 42.4444 16.9657C43.7155 16.9657 44.6489 17.4697 45.3333 18.1267L46.4622 16.9837C45.5022 16.0567 44.2311 15.3457 42.4355 15.3457C39.2 15.3457 36.48 18.0097 36.48 21.2947C36.48 24.5707 39.2 27.2437 42.4355 27.2437C44.1866 27.2437 45.5022 26.6677 46.5333 25.5787C47.5911 24.5077 47.92 22.9957 47.92 21.7807C47.92 21.4027 47.8933 21.0517 47.8311 20.7637H42.4355V20.7547ZM82.7111 22.0147C82.4 21.1597 81.44 19.5757 79.4755 19.5757C77.5289 19.5757 75.9111 21.1237 75.9111 23.4007C75.9111 25.5427 77.5111 27.2257 79.6622 27.2257C81.3955 27.2257 82.4 26.1547 82.8089 25.5337L81.52 24.6607C81.0933 25.2997 80.5066 25.7227 79.6622 25.7227C78.8178 25.7227 78.2133 25.3267 77.8311 24.5617L82.8889 22.4467L82.7111 22.0147ZM77.5555 23.2927C77.5111 21.8167 78.6844 21.0607 79.5289 21.0607C80.1866 21.0607 80.7466 21.3937 80.9333 21.8707L77.5555 23.2927ZM73.4489 27.0007H75.1111V15.7507H73.4489V27.0007ZM70.7289 20.4307H70.6666C70.2933 19.9807 69.5822 19.5757 68.6755 19.5757C66.7822 19.5757 65.0489 21.2587 65.0489 23.4187C65.0489 25.5607 66.7822 27.2347 68.6755 27.2347C69.5733 27.2347 70.2933 26.8297 70.6666 26.3617H70.72V26.9107C70.72 28.3777 69.9466 29.1607 68.7022 29.1607C67.6889 29.1607 67.0578 28.4227 66.8 27.8017L65.3511 28.4137C65.7689 29.4307 66.8711 30.6727 68.7022 30.6727C70.6489 30.6727 72.2933 29.5117 72.2933 26.6857V19.8097H70.72V20.4307H70.7289ZM68.8178 25.7227C67.6711 25.7227 66.7111 24.7507 66.7111 23.4187C66.7111 22.0687 67.6711 21.0877 68.8178 21.0877C69.9466 21.0877 70.8355 22.0777 70.8355 23.4187C70.8444 24.7507 69.9555 25.7227 68.8178 25.7227ZM90.4978 15.7507H86.5244V27.0007H88.1866V22.7347H90.5066C92.3466 22.7347 94.1511 21.3847 94.1511 19.2427C94.1511 17.1007 92.3289 15.7507 90.4978 15.7507ZM90.5333 21.1687H88.1778V17.3077H90.5333C91.7778 17.3077 92.48 18.3517 92.48 19.2337C92.48 20.1157 91.7778 21.1687 90.5333 21.1687ZM100.791 19.5577C99.5911 19.5577 98.3466 20.0977 97.8311 21.2767L99.3066 21.8977C99.6178 21.2767 100.204 21.0697 100.818 21.0697C101.68 21.0697 102.551 21.5917 102.56 22.5187V22.6357C102.258 22.4647 101.618 22.2037 100.827 22.2037C99.2355 22.2037 97.6266 23.0857 97.6266 24.7327C97.6266 26.2357 98.9244 27.2077 100.382 27.2077C101.493 27.2077 102.116 26.7037 102.498 26.1097H102.551V26.9827H104.151V22.6717C104.16 20.6737 102.684 19.5577 100.791 19.5577ZM100.587 25.7227C100.044 25.7227 99.2889 25.4437 99.2889 24.7687C99.2889 23.9047 100.231 23.5717 101.049 23.5717C101.778 23.5717 102.124 23.7337 102.56 23.9497C102.436 24.9847 101.547 25.7227 100.587 25.7227ZM109.991 19.8007L108.089 24.6787H108.036L106.062 19.8007H104.276L107.236 26.6227L105.547 30.4117H107.28L111.84 19.8007H109.991ZM95.0578 27.0007H96.72V15.7507H95.0578V27.0007Z" fill="white"/>
<path d="M9.27998 6.78761C9.0222 7.06661 8.87109 7.49861 8.87109 8.04761V27.9556C8.87109 28.5136 9.0222 28.9456 9.27998 29.2156L9.34221 29.2786L20.3555 18.1366V18.0016V17.8666L9.34221 6.72461L9.27998 6.78761Z" fill="url(#paint0_linear_1008_12968)"/>
<path d="M24.0266 21.8524L20.3555 18.1354V18.0004V17.8654L24.0266 14.1484L24.1066 14.1934L28.4532 16.6954C29.6977 17.4064 29.6977 18.5764 28.4532 19.2964L24.1066 21.7984L24.0266 21.8524Z" fill="url(#paint1_linear_1008_12968)"/>
<path d="M24.1066 21.807L20.3555 18L9.27991 29.214C9.6888 29.655 10.3644 29.709 11.1288 29.268L24.1066 21.807Z" fill="url(#paint2_linear_1008_12968)"/>
<path d="M24.1067 14.2027L11.12 6.73272C10.3556 6.29172 9.68001 6.34572 9.27112 6.78672L20.3556 18.0007L24.1067 14.2027Z" fill="url(#paint3_linear_1008_12968)"/>
<path opacity="0.2" d="M24.0267 21.7168L11.12 29.1418C10.4 29.5558 9.75114 29.5288 9.34225 29.1508L9.28003 29.2138L9.34225 29.2768C9.76003 29.6548 10.4 29.6818 11.12 29.2678L24.1067 21.7978L24.0267 21.7168Z" fill="black"/>
<path opacity="0.12" d="M9.27998 29.0881C9.02221 28.8091 8.87109 28.3771 8.87109 27.8281V27.9631C8.87109 28.5211 9.02221 28.9531 9.27998 29.2231L9.34221 29.1601L9.27998 29.0881Z" fill="black"/>
<path opacity="0.12" d="M28.4533 19.17L24.0177 21.717L24.0977 21.798L28.4444 19.296C29.0666 18.936 29.3777 18.468 29.3777 18C29.3333 18.423 29.0221 18.846 28.4533 19.17Z" fill="black"/>
<path opacity="0.25" d="M11.12 6.85819L28.4533 16.8302C29.0133 17.1542 29.3333 17.5682 29.3866 18.0002C29.3866 17.5322 29.0755 17.0552 28.4533 16.7042L11.12 6.73219C9.87552 6.02119 8.86218 6.61519 8.86218 8.05519V8.19019C8.86218 6.74119 9.8844 6.14719 11.12 6.85819Z" fill="white"/>
<defs>
<linearGradient id="paint0_linear_1008_12968" x1="19.3774" y1="7.84043" x2="4.27441" y2="22.757" gradientUnits="userSpaceOnUse">
<stop stop-color="#00A0FF"/>
<stop offset="0.00657445" stop-color="#00A1FF"/>
<stop offset="0.2601" stop-color="#00BEFF"/>
<stop offset="0.5122" stop-color="#00D2FF"/>
<stop offset="0.7604" stop-color="#00DFFF"/>
<stop offset="1" stop-color="#00E3FF"/>
</linearGradient>
<linearGradient id="paint1_linear_1008_12968" x1="30.0748" y1="18.0018" x2="8.56649" y2="18.0018" gradientUnits="userSpaceOnUse">
<stop stop-color="#FFE000"/>
<stop offset="0.4087" stop-color="#FFBD00"/>
<stop offset="0.7754" stop-color="#FFA500"/>
<stop offset="1" stop-color="#FF9C00"/>
</linearGradient>
<linearGradient id="paint2_linear_1008_12968" x1="22.0683" y1="20.0666" x2="1.58737" y2="40.2946" gradientUnits="userSpaceOnUse">
<stop stop-color="#FF3A44"/>
<stop offset="1" stop-color="#C31162"/>
</linearGradient>
<linearGradient id="paint3_linear_1008_12968" x1="6.48641" y1="0.159391" x2="15.632" y2="9.19203" gradientUnits="userSpaceOnUse">
<stop stop-color="#32A071"/>
<stop offset="0.0685" stop-color="#2DA771"/>
<stop offset="0.4762" stop-color="#15CF74"/>
<stop offset="0.8009" stop-color="#06E775"/>
<stop offset="1" stop-color="#00F076"/>
</linearGradient>
</defs>
</svg>
