<svg width="72" height="72" viewBox="0 0 72 72" fill="none" xmlns="http://www.w3.org/2000/svg">
<path d="M16.3871 14.9274V10.1936H14.3226V14.3226H12.2581V8.12903H10.1935V14.3226H8.12903V4H6.06452V14.3226H4V16.3871H14.9274L17.7218 19.1815L19.1815 17.7218L16.3871 14.9274Z" fill="#5D86AF"/>
<path d="M65.9355 65.9355V55.6129H63.871V65.9355H61.8065V59.742H59.7419V65.9355H57.6774V61.8065H55.6129V65.9355H53.9758L46.0202 57.9799L44.5605 59.4395L53.121 68H68V65.9355H65.9355Z" fill="#5D86AF"/>
<path d="M52.2158 32.9032C52.4068 33.9077 52.5162 34.941 52.5162 36C52.5162 45.122 45.122 52.5161 36 52.5161C35.6512 52.5161 35.3105 52.4854 34.9678 52.4647V61.8064H36C50.2299 61.8064 61.8065 50.2298 61.8065 36V32.9032H52.2158Z" fill="#D38E4E" fill-opacity="0.5"/>
<path d="M19.7843 39.0967C19.5933 38.0922 19.4839 37.0589 19.4839 36C19.4839 26.878 26.8781 19.4838 36.0001 19.4838C36.3488 19.4838 36.6896 19.5146 37.0323 19.5352V10.1935H36.0001C21.7702 10.1935 10.1936 21.7701 10.1936 36V39.0967H19.7843Z" fill="#D38E4E" fill-opacity="0.5"/>
<path d="M44.2581 47.3548H27.7419V32.9032H44.2581V47.3548Z" fill="#D38E4E" fill-opacity="0.5"/>
<path d="M34.9678 37.0322H37.0323V39.0967H34.9678V37.0322Z" fill="#5D86AF"/>
<path d="M34.9678 41.1613H37.0323V47.3548H34.9678V41.1613Z" fill="#5D86AF"/>
<path d="M31.8709 32.9033H29.8064V28.7742C29.8064 25.3584 32.5841 22.5807 35.9999 22.5807C39.4158 22.5807 42.1935 25.3584 42.1935 28.7742V30.8388H40.129V28.7742C40.129 26.497 38.2772 24.6452 35.9999 24.6452C33.7227 24.6452 31.8709 26.497 31.8709 28.7742V32.9033Z" fill="#5D86AF"/>
<path d="M29.3922 15.3292L31.3861 14.7949L31.9204 16.7889L29.9264 17.3231L29.3922 15.3292Z" fill="#5D86AF"/>
<path d="M24.2681 17.7439L26.0559 16.7122L27.0882 18.5L25.2999 19.5322L24.2681 17.7439Z" fill="#5D86AF"/>
<path d="M19.9436 21.4013L21.4038 19.9421L22.8635 21.4023L21.4028 22.862L19.9436 21.4013Z" fill="#5D86AF"/>
<path d="M16.7097 26.0555L17.742 24.2672L19.5298 25.2995L18.4975 27.0878L16.7097 26.0555Z" fill="#5D86AF"/>
<path d="M14.7933 31.3871L15.3276 29.3932L17.3216 29.9275L16.7873 31.9214L14.7933 31.3871Z" fill="#5D86AF"/>
<path d="M40.0766 55.2107L42.0705 54.6764L42.6053 56.6703L40.6109 57.2046L40.0766 55.2107Z" fill="#5D86AF"/>
<path d="M44.9128 53.503L46.7006 52.4707L47.7329 54.259L45.9446 55.2913L44.9128 53.503Z" fill="#5D86AF"/>
<path d="M49.1422 50.5983L50.6028 49.1392L52.062 50.5993L50.6018 52.059L49.1422 50.5983Z" fill="#5D86AF"/>
<path d="M52.4672 46.7005L53.4995 44.9122L55.2873 45.9445L54.255 47.7328L52.4672 46.7005Z" fill="#5D86AF"/>
<path d="M54.6785 42.0771L55.2127 40.0831L57.2072 40.6174L56.6729 42.6114L54.6785 42.0771Z" fill="#5D86AF"/>
<path d="M41.0282 19.1894C39.4168 18.7076 37.7258 18.4515 36 18.4515C26.3236 18.4515 18.4516 26.3235 18.4516 35.9999C18.4516 36.6759 18.495 37.3679 18.5796 38.0645H8.12903V40.129H21.0312L20.7979 38.9037C20.6109 37.9188 20.5161 36.9425 20.5161 35.9999C20.5161 27.4621 27.4622 20.5161 36 20.5161C41.123 20.5161 45.9088 23.0483 48.8009 27.2908L49.1089 27.7419H59.7419V25.6774H50.1895C48.3574 23.1617 45.9209 21.2172 43.1568 19.9813L46.75 16.387H48.9919L54.1532 21.5483H59.7419V19.4838H55.0081L51.9113 16.387H63.871V14.3225H45.8952L41.0282 19.1894Z" fill="#5D86AF"/>
<path d="M65.9355 14.3225H68V16.387H65.9355V14.3225Z" fill="#5D86AF"/>
<path d="M61.8065 19.4839H63.871V21.5484H61.8065V19.4839Z" fill="#5D86AF"/>
<path d="M61.8065 25.6775H63.871V27.742H61.8065V25.6775Z" fill="#5D86AF"/>
<path d="M65.9355 31.871H68V33.9355H65.9355V31.871Z" fill="#5D86AF"/>
<path d="M4 55.6129H6.06452V57.6774H4V55.6129Z" fill="#5D86AF"/>
<path d="M8.12903 50.4517H10.1935V52.5162H8.12903V50.4517Z" fill="#5D86AF"/>
<path d="M51.2021 33.0963C51.3891 34.0812 51.4839 35.0575 51.4839 36C51.4839 44.5378 44.5378 51.4839 36 51.4839C30.877 51.4839 26.0912 48.9516 23.1991 44.7092L22.8911 44.2581H12.2581V46.3226H21.8105C23.6426 48.8382 26.0791 50.7828 28.8432 52.0187L25.25 55.6129H23.0081L17.8468 50.4516H12.2581V52.5161H16.9919L20.0887 55.6129H8.12903V57.6774H26.1048L30.9718 52.8105C32.5832 53.2924 34.2742 53.5484 36 53.5484C45.6764 53.5484 53.5484 45.6764 53.5484 36C53.5484 35.3241 53.505 34.6321 53.4204 33.9355H63.871V31.871H50.9688L51.2021 33.0963Z" fill="#5D86AF"/>
<path d="M8.12903 44.2581H10.1935V46.3226H8.12903V44.2581Z" fill="#5D86AF"/>
<path d="M4 38.0645H6.06452V40.129H4V38.0645Z" fill="#5D86AF"/>
</svg>
