<svg width="72" height="72" viewBox="0 0 72 72" fill="none" xmlns="http://www.w3.org/2000/svg">
<path d="M54.5806 26.7097C59.7115 26.7097 63.8709 22.5503 63.8709 17.4194C63.8709 12.2884 59.7115 8.12903 54.5806 8.12903C49.4497 8.12903 45.2903 12.2884 45.2903 17.4194C45.2903 22.5503 49.4497 26.7097 54.5806 26.7097Z" fill="#D38E4E" fill-opacity="0.5"/>
<path d="M58.7097 45.2903H50.4517V66.9677H58.7097V45.2903Z" fill="#D38E4E" fill-opacity="0.5"/>
<path d="M33.9356 51.4839H25.6775V66.9678H33.9356V51.4839Z" fill="#D38E4E" fill-opacity="0.5"/>
<path d="M46.3225 41.1613H38.0645V66.9677H46.3225V41.1613Z" fill="#D38E4E" fill-opacity="0.5"/>
<path d="M21.5483 39.0968H13.2903V66.9678H21.5483V39.0968Z" fill="#D38E4E" fill-opacity="0.5"/>
<path d="M54.5807 22.5806C53.4421 22.5806 52.5162 21.6547 52.5162 20.5161H50.4517C50.4517 22.4341 51.773 24.0372 53.5484 24.4986V26.7097H55.613V24.4986C57.3884 24.0372 58.7097 22.4341 58.7097 20.5161C58.7097 18.239 56.8579 16.3871 54.5807 16.3871C53.4421 16.3871 52.5162 15.4612 52.5162 14.3226C52.5162 13.184 53.4421 12.2581 54.5807 12.2581C55.7193 12.2581 56.6452 13.184 56.6452 14.3226H58.7097C58.7097 12.4046 57.3884 10.8015 55.613 10.3401V8.12903H53.5484V10.3401C51.773 10.8015 50.4517 12.4046 50.4517 14.3226C50.4517 16.5997 52.3035 18.4516 54.5807 18.4516C55.7193 18.4516 56.6452 19.3775 56.6452 20.5161C56.6452 21.6547 55.7193 22.5806 54.5807 22.5806Z" fill="#5D86AF"/>
<path d="M54.5806 4C47.5283 4 41.729 9.46787 41.2005 16.3871H36.4129L28.7215 30.8088L23.1649 21.5484H20.5161V17.4194H18.4516V21.5484H16.3871V13.2903H14.3226V21.5484H12.2581V15.3548H10.1935V21.5484H8.12903V13.2903H6.06452V21.5484H4V23.6129H21.9964L28.8279 34.9977L37.6516 18.4516H43.2258V17.4194C43.2258 11.1587 48.32 6.06452 54.5806 6.06452C60.8413 6.06452 65.9355 11.1587 65.9355 17.4194C65.9355 23.68 60.8413 28.7742 54.5806 28.7742C49.3966 28.7742 44.8733 25.2728 43.583 20.2591L41.5835 20.7732C43.1092 26.6994 48.4532 30.8387 54.5806 30.8387C61.9799 30.8387 68 24.8186 68 17.4194C68 10.0201 61.9799 4 54.5806 4Z" fill="#5D86AF"/>
<path d="M17.4193 30.8387C15.7119 30.8387 14.3225 32.2282 14.3225 33.9355C14.3225 35.6429 15.7119 37.0323 17.4193 37.0323C17.9426 37.0323 18.4299 36.8898 18.8624 36.6586L26.9573 44.0785C26.7984 44.4511 26.7096 44.8609 26.7096 45.2904C26.7096 46.9977 28.099 48.3871 29.8064 48.3871C31.5137 48.3871 32.9032 46.9977 32.9032 45.2904C32.9032 44.9693 32.8402 44.6648 32.7483 44.3737L40.4779 38.5765C40.9703 38.9038 41.5597 39.0968 42.1935 39.0968C43.1824 39.0968 44.0546 38.622 44.6224 37.8984L51.49 40.1869C51.521 41.8674 52.8928 43.2258 54.5806 43.2258C56.2879 43.2258 57.6773 41.8364 57.6773 40.1291C57.6773 38.4217 56.2879 37.0323 54.5806 37.0323C53.5917 37.0323 52.7184 37.5071 52.1517 38.2318L45.2841 35.9422C45.2531 34.2617 43.8812 32.9033 42.1935 32.9033C40.4861 32.9033 39.0967 34.2927 39.0967 36C39.0967 36.3211 39.1597 36.6246 39.2505 36.9167L31.5199 42.7149C31.0286 42.3866 30.4402 42.1936 29.8064 42.1936C29.283 42.1936 28.7968 42.336 28.3633 42.5673L20.2683 35.1474C20.4273 34.7747 20.5161 34.3649 20.5161 33.9355C20.5161 32.2282 19.1266 30.8387 17.4193 30.8387ZM17.4193 34.9678C16.8505 34.9678 16.387 34.5043 16.387 33.9355C16.387 33.3667 16.8505 32.9033 17.4193 32.9033C17.9881 32.9033 18.4515 33.3667 18.4515 33.9355C18.4515 34.5043 17.9881 34.9678 17.4193 34.9678ZM54.5806 39.0968C55.1493 39.0968 55.6128 39.5593 55.6128 40.1291C55.6128 40.6989 55.1493 41.1613 54.5806 41.1613C54.0118 41.1613 53.5483 40.6989 53.5483 40.1291C53.5483 39.5593 54.0118 39.0968 54.5806 39.0968ZM42.1935 34.9678C42.7623 34.9678 43.2257 35.4313 43.2257 36C43.2257 36.5688 42.7623 37.0323 42.1935 37.0323C41.6247 37.0323 41.1612 36.5688 41.1612 36C41.1612 35.4313 41.6247 34.9678 42.1935 34.9678ZM29.8064 44.2581C30.3752 44.2581 30.8386 44.7206 30.8386 45.2904C30.8386 45.8602 30.3752 46.3226 29.8064 46.3226C29.2376 46.3226 28.7741 45.8602 28.7741 45.2904C28.7741 44.7206 29.2376 44.2581 29.8064 44.2581Z" fill="#5D86AF"/>
<path d="M6.06452 65.9354H4V67.9999H6.06452V65.9354Z" fill="#5D86AF"/>
<path d="M63.871 65.9354H8.12903V67.9999H63.871V65.9354Z" fill="#5D86AF"/>
<path d="M68.0001 65.9354H65.9355V67.9999H68.0001V65.9354Z" fill="#5D86AF"/>
</svg>
