<svg width="72" height="72" viewBox="0 0 72 72" fill="none" xmlns="http://www.w3.org/2000/svg">
<path d="M62.8387 15.2857C59.9928 15.2857 57.6774 17.6088 57.6774 20.4643C57.6774 21.3933 57.9344 22.6217 58.497 23.5942L48.6266 38.9L41.3265 19.673C42.4671 18.3214 43.2258 16.2023 43.2258 14.25C43.2258 10.2521 39.9835 7 36 7C32.0165 7 28.7742 10.2521 28.7742 14.25C28.7742 16.2023 29.5329 18.3214 30.6735 19.673L23.3734 38.901L13.503 23.5953C14.0655 22.6217 14.3226 21.3933 14.3226 20.4643C14.3226 17.6088 12.0072 15.2857 9.16129 15.2857C6.31535 15.2857 4 17.6088 4 20.4643C4 22.6403 5.33574 24.6216 7.25471 25.4057L14.1151 54.907C13.024 55.3875 12.2581 56.4792 12.2581 57.75V61.8929C12.2581 63.6059 13.6475 65 15.3548 65H56.6452C58.3525 65 59.7419 63.6059 59.7419 61.8929V57.75C59.7419 56.4792 58.976 55.3875 57.8849 54.907L64.7453 25.4057C66.6643 24.6216 68 22.6403 68 20.4643C68 17.6088 65.6846 15.2857 62.8387 15.2857ZM57.6774 61.8929C57.6774 62.4646 57.215 62.9286 56.6452 62.9286H15.3548C14.785 62.9286 14.3226 62.4646 14.3226 61.8929V57.75C14.3226 57.1783 14.785 56.7143 15.3548 56.7143H56.6452C57.215 56.7143 57.6774 57.1783 57.6774 57.75V61.8929ZM63.6139 23.6046L63.008 23.761L55.8266 54.6429H16.1734L8.992 23.761L8.38606 23.6046C7.06271 23.2628 6.06452 21.9122 6.06452 20.4643C6.06452 18.7512 7.45394 17.3571 9.16129 17.3571C10.8686 17.3571 12.2581 18.7512 12.2581 20.4643C12.2581 21.3281 11.9185 22.3928 11.4839 22.8858L10.9667 23.4741L23.8524 43.4551L33.088 19.1303L32.5585 18.6559C31.5788 17.7756 30.8387 15.8812 30.8387 14.25C30.8387 11.3945 33.1541 9.07143 36 9.07143C38.8459 9.07143 41.1613 11.3945 41.1613 14.25C41.1613 15.8812 40.4212 17.7756 39.4405 18.657L38.911 19.1313L48.1466 43.4561L61.0323 23.4751L60.5151 22.8868C60.0815 22.3928 59.7419 21.3281 59.7419 20.4643C59.7419 18.7512 61.1314 17.3571 62.8387 17.3571C64.5461 17.3571 65.9355 18.7512 65.9355 20.4643C65.9355 21.9122 64.9373 23.2628 63.6139 23.6046Z" fill="#5D86AF"/>
<path d="M21.5484 45.3213C19.841 45.3213 18.4516 46.7154 18.4516 48.4284C18.4516 50.1415 19.841 51.5356 21.5484 51.5356C23.2557 51.5356 24.6451 50.1415 24.6451 48.4284C24.6451 46.7154 23.2557 45.3213 21.5484 45.3213Z" fill="#D38E4E" fill-opacity="0.5"/>
<path d="M50.4516 45.3213C48.7443 45.3213 47.3549 46.7154 47.3549 48.4284C47.3549 50.1415 48.7443 51.5356 50.4516 51.5356C52.159 51.5356 53.5484 50.1415 53.5484 48.4284C53.5484 46.7154 52.159 45.3213 50.4516 45.3213Z" fill="#D38E4E" fill-opacity="0.5"/>
<path d="M28.5161 43.2498L36 53.262L43.4839 43.2498L36 33.2375L28.5161 43.2498Z" fill="#D38E4E" fill-opacity="0.5"/>
<path d="M36 20.4644C35.4302 20.4644 34.9678 20.9284 34.9678 21.5001C34.9678 22.0718 35.4302 22.5358 36 22.5358C36.5698 22.5358 37.0323 22.0718 37.0323 21.5001C37.0323 20.9284 36.5698 20.4644 36 20.4644Z" fill="#5D86AF"/>
<path d="M36 24.6072C35.4302 24.6072 34.9678 25.0712 34.9678 25.6429C34.9678 26.2146 35.4302 26.6786 36 26.6786C36.5698 26.6786 37.0323 26.2146 37.0323 25.6429C37.0323 25.0712 36.5698 24.6072 36 24.6072Z" fill="#5D86AF"/>
<path d="M36 28.75C35.4302 28.75 34.9678 29.214 34.9678 29.7857C34.9678 30.3574 35.4302 30.8214 36 30.8214C36.5698 30.8214 37.0323 30.3574 37.0323 29.7857C37.0323 29.214 36.5698 28.75 36 28.75Z" fill="#5D86AF"/>
</svg>
