<svg width="72" height="72" viewBox="0 0 72 72" fill="none" xmlns="http://www.w3.org/2000/svg">
<path d="M49.4193 40.129C46.0036 40.129 43.2258 37.3512 43.2258 33.9355C43.2258 30.5198 46.0036 27.7419 49.4193 27.7419C52.8351 27.7419 55.6129 30.5198 55.6129 33.9355C55.6129 37.3512 52.8351 40.129 49.4193 40.129Z" fill="#D38E4E" fill-opacity="0.5"/>
<path d="M8.12906 39.0968H30.8387V44.2581H8.12906V39.0968Z" fill="#D38E4E" fill-opacity="0.5"/>
<path d="M37.0323 37.0322H8.12906V20.5161H37.0323V37.0322Z" fill="#D38E4E" fill-opacity="0.5"/>
<path d="M14.3226 8.12903H8.12906V14.3226H14.3226V8.12903ZM12.2581 12.2581H10.1936V10.1935H12.2581V12.2581Z" fill="#5D86AF"/>
<path d="M22.5807 8.12903H16.3871V14.3226H22.5807V8.12903ZM20.5161 12.2581H18.4516V10.1935H20.5161V12.2581Z" fill="#5D86AF"/>
<path d="M30.8387 8.12903H24.6452V14.3226H30.8387V8.12903ZM28.7742 12.2581H26.7097V10.1935H28.7742V12.2581Z" fill="#5D86AF"/>
<path d="M68 52.8248C68 49.3316 66.401 46.1295 63.871 43.9701V7.09677C63.871 5.38942 62.4815 4 60.7742 4H7.09677C5.38942 4 4 5.38942 4 7.09677V46.3226C4 48.0299 5.38942 49.4194 7.09677 49.4194H31.3662C31.0286 50.5032 30.8387 51.6459 30.8387 52.8248V54.5806H35.6098C32.6545 57.8725 30.8387 62.207 30.8387 66.9677V68H68V66.9677C68 62.207 66.1843 57.8725 63.2289 54.5806H68V52.8248ZM7.09677 6.06452H60.7742C61.343 6.06452 61.8064 6.528 61.8064 7.09677V12.2581H35.4839L32.3871 16.3871H6.06452V7.09677C6.06452 6.528 6.528 6.06452 7.09677 6.06452ZM7.09677 47.3548C6.528 47.3548 6.06452 46.8924 6.06452 46.3226V18.4516H33.4194L36.5161 14.3226H61.8064V42.5579C60.9786 42.1141 60.095 41.761 59.1608 41.5277C59.5375 39.7099 59.7419 37.8581 59.7419 36.0052C59.7419 30.3866 58.0387 24.9837 54.817 20.3809L53.5143 18.5197C52.5801 17.184 51.0493 16.3871 49.4194 16.3871C47.7894 16.3871 46.2586 17.184 45.3254 18.5187L44.0227 20.3799C40.8 24.9837 39.0968 30.3866 39.0968 36.0052C39.0968 37.8581 39.3012 39.711 39.6779 41.5267C36.4428 42.337 33.7693 44.513 32.2374 47.3548H7.09677ZM54.143 49.0188C52.6317 48.6204 51.0545 48.3871 49.4194 48.3871C47.7843 48.3871 46.207 48.6204 44.6957 49.0188L43.8204 47.2671C43.6655 46.9564 43.5241 46.6395 43.3827 46.3226H55.457C55.3146 46.6395 55.1742 46.9564 55.0194 47.2671L54.143 49.0188ZM56.2756 44.2581H42.5631C41.6454 41.6083 41.1613 38.8067 41.1613 36.0052C41.1613 32.4046 41.9344 28.9063 43.392 25.6774H55.4467C56.9032 28.9063 57.6774 32.4046 57.6774 36.0052C57.6774 38.8067 57.1933 41.6083 56.2756 44.2581ZM44.4356 23.6129C44.831 22.9151 45.249 22.2276 45.7135 21.5639L47.0163 19.7027C47.5644 18.9192 48.4625 18.4516 49.4194 18.4516C50.3763 18.4516 51.2743 18.9192 51.8224 19.7027L53.1252 21.5649C53.5897 22.2286 54.0077 22.9161 54.4031 23.6129H44.4356ZM40.1683 43.5345C40.6286 45.1375 41.2284 46.7004 41.9737 48.191L42.7086 49.6609C40.9104 50.3608 39.2444 51.3228 37.7672 52.5161H32.9094C33.0477 48.2519 36.0671 44.5646 40.1683 43.5345ZM37.6227 63.199L39.488 63.9711L40.2777 62.0635L38.4206 61.2945C38.8511 60.4635 39.3693 59.6862 39.9701 58.977L41.3904 60.3974L42.8501 58.9378L41.4297 57.5174C42.1378 56.9177 42.9151 56.3985 43.7471 55.968L44.5161 57.825L46.4237 57.0343L45.6516 55.1701C46.5259 54.8903 47.4426 54.7107 48.3881 54.6323V56.6452H50.4526V54.6333C51.3982 54.7117 52.3148 54.8914 53.1892 55.1711L52.417 57.0354L54.3246 57.8261L55.0937 55.969C55.9246 56.3995 56.7019 56.9177 57.4111 57.5185L55.9907 58.9388L57.4503 60.3985L58.8707 58.9781C59.4704 59.6862 59.9897 60.4635 60.4201 61.2955L58.5631 62.0645L59.3528 63.9721L61.2181 63.2C61.4978 64.0743 61.6774 64.991 61.7569 65.9365H54.4795C54.0645 63.9164 52.4707 62.3226 50.4516 61.9107V58.7097H48.3871V61.9107C46.368 62.3226 44.7742 63.9164 44.3623 65.9355H37.0849C37.1634 64.9899 37.343 64.0723 37.6227 63.199ZM49.4194 63.871C50.7634 63.871 51.8988 64.737 52.3262 65.9355H46.5135C46.9399 64.737 48.0754 63.871 49.4194 63.871ZM63.8183 65.9355C63.2857 58.4485 57.0395 52.5161 49.4194 52.5161C41.7992 52.5161 35.553 58.4485 35.0204 65.9355H32.9352C33.4699 57.3079 40.6596 50.4516 49.4194 50.4516C58.1791 50.4516 65.3688 57.3079 65.9035 65.9355H63.8183ZM61.0725 52.5161C59.5954 51.3228 57.9293 50.3608 56.1311 49.6609L56.8661 48.191C57.6114 46.7004 58.2111 45.1375 58.6715 43.5345C62.7716 44.5646 65.792 48.2529 65.9314 52.5161H61.0725Z" fill="#5D86AF"/>
<path d="M8.12906 39.0968H10.1936V41.1613H8.12906V39.0968Z" fill="#5D86AF"/>
<path d="M12.2581 39.0968H30.8387V41.1613H12.2581V39.0968Z" fill="#5D86AF"/>
<path d="M8.12906 43.2258H30.8387V45.2903H8.12906V43.2258Z" fill="#5D86AF"/>
</svg>
