<svg width="24" height="24" viewBox="0 0 24 24" fill="none" xmlns="http://www.w3.org/2000/svg">
<g opacity="0.64">
<path d="M18.8 24H5.2C2.328 24 0 21.672 0 18.8V5.2C0 2.328 2.328 0 5.2 0H18.8C21.672 0 24 2.328 24 5.2V18.8C24 21.672 21.672 24 18.8 24Z" fill="white"/>
<path d="M17.4625 11.8218L16.9263 15.3398H14.0806V24.0004H10.2863V15.3398H7.19995V11.8218H10.2863V9.13689C10.2863 6.08708 12.1009 4.40039 14.8779 4.40039C16.2115 4.40039 17.5999 4.64135 17.5999 4.64135V7.63608H16.0671C14.5617 7.63608 14.0875 8.57236 14.0875 9.53618V11.8218H17.4625Z" fill="#121314"/>
</g>
</svg>
