<svg width="24" height="24" viewBox="0 0 24 24" fill="none" xmlns="http://www.w3.org/2000/svg">
<g opacity="0.64">
<path d="M18.8 24H5.2C2.328 24 0 21.672 0 18.8V5.2C0 2.328 2.328 0 5.2 0H18.8C21.672 0 24 2.328 24 5.2V18.8C24 21.672 21.672 24 18.8 24Z" fill="white"/>
<path d="M20.7 10.9436C20.7 7.03356 16.78 3.85156 11.962 3.85156C7.144 3.85156 3.224 7.03356 3.224 10.9436C3.224 14.4496 6.332 17.3856 10.532 17.9396C10.816 18.0016 11.204 18.1276 11.302 18.3696C11.39 18.5896 11.36 18.9356 11.33 19.1596C11.33 19.1596 11.228 19.7756 11.206 19.9076C11.168 20.1276 11.03 20.7716 11.962 20.3796C12.894 19.9876 16.994 17.4156 18.828 15.3056C20.092 13.9176 20.7 12.5096 20.7 10.9436Z" fill="#121314"/>
<path d="M10.1859 9.05566H9.57393C9.47993 9.05566 9.40393 9.13166 9.40393 9.22566V13.0337C9.40393 13.1277 9.47993 13.2037 9.57393 13.2037H10.1859C10.2799 13.2037 10.3559 13.1277 10.3559 13.0337V9.22566C10.3559 9.13166 10.2799 9.05566 10.1859 9.05566Z" fill="white"/>
<path d="M14.404 9.05571H13.792C13.698 9.05571 13.622 9.13171 13.622 9.22571V11.4877L11.878 9.13171C11.874 9.12571 11.87 9.11971 11.864 9.11371C11.864 9.11371 11.864 9.11371 11.862 9.11171C11.858 9.10771 11.856 9.10371 11.852 9.10171C11.85 9.10171 11.85 9.09971 11.848 9.09971C11.846 9.09771 11.842 9.09371 11.838 9.09171C11.836 9.08971 11.836 9.08971 11.834 9.08771C11.832 9.08571 11.828 9.08371 11.826 9.08171C11.824 9.07971 11.822 9.07971 11.82 9.07771C11.816 9.07571 11.814 9.07371 11.81 9.07171C11.808 9.07171 11.806 9.06971 11.804 9.06971C11.8 9.06771 11.798 9.06771 11.794 9.06571C11.792 9.06571 11.79 9.06371 11.788 9.06371C11.784 9.06171 11.782 9.06171 11.778 9.05971C11.776 9.05971 11.774 9.05971 11.772 9.05771C11.768 9.05771 11.766 9.05571 11.762 9.05571C11.76 9.05571 11.758 9.05571 11.754 9.05571C11.752 9.05571 11.748 9.05571 11.746 9.05371C11.744 9.05371 11.74 9.05371 11.738 9.05371C11.736 9.05371 11.734 9.05371 11.732 9.05371H11.12C11.026 9.05371 10.95 9.12971 10.95 9.22371V13.0317C10.95 13.1257 11.026 13.2017 11.12 13.2017H11.732C11.826 13.2017 11.902 13.1257 11.902 13.0317V10.7717L13.648 13.1317C13.66 13.1477 13.674 13.1617 13.692 13.1737C13.692 13.1737 13.694 13.1737 13.694 13.1757C13.698 13.1777 13.7 13.1797 13.704 13.1817C13.706 13.1817 13.708 13.1837 13.708 13.1837C13.71 13.1857 13.714 13.1857 13.716 13.1877C13.718 13.1897 13.722 13.1897 13.724 13.1917C13.726 13.1917 13.728 13.1937 13.73 13.1937C13.734 13.1957 13.738 13.1957 13.742 13.1977H13.744C13.758 13.2017 13.772 13.2037 13.788 13.2037H14.4C14.494 13.2037 14.57 13.1277 14.57 13.0337V9.22571C14.574 9.13171 14.498 9.05571 14.404 9.05571Z" fill="white"/>
<path d="M8.70797 12.2497H7.04197V9.22566C7.04197 9.13166 6.96597 9.05566 6.87197 9.05566H6.25997C6.16597 9.05566 6.08997 9.13166 6.08997 9.22566V13.0337C6.08997 13.0797 6.10797 13.1217 6.13797 13.1517L6.13997 13.1537L6.14197 13.1557C6.17197 13.1857 6.21397 13.2037 6.25997 13.2037H8.70797C8.80197 13.2037 8.87797 13.1277 8.87797 13.0337V12.4197C8.87797 12.3257 8.80197 12.2497 8.70797 12.2497Z" fill="white"/>
<path d="M17.79 10.0077C17.884 10.0077 17.96 9.93166 17.96 9.83766V9.22566C17.96 9.13166 17.884 9.05566 17.79 9.05566H15.34C15.294 9.05566 15.252 9.07366 15.222 9.10366L15.22 9.10566C15.22 9.10766 15.218 9.10766 15.218 9.10966C15.188 9.13966 15.17 9.18166 15.17 9.22766V13.0337C15.17 13.0797 15.188 13.1217 15.218 13.1517L15.22 13.1537L15.222 13.1557C15.252 13.1857 15.294 13.2037 15.34 13.2037H17.788C17.882 13.2037 17.958 13.1277 17.958 13.0337V12.4197C17.958 12.3257 17.882 12.2497 17.788 12.2497H16.122V11.6057H17.788C17.882 11.6057 17.958 11.5297 17.958 11.4357V10.8237C17.958 10.7297 17.882 10.6537 17.788 10.6537H16.122V10.0097H17.79V10.0077Z" fill="white"/>
</g>
</svg>
