<svg width="24" height="24" viewBox="0 0 24 24" fill="none" xmlns="http://www.w3.org/2000/svg">
<g opacity="0.64">
<path d="M11.9619 13.6826C12.3223 13.6826 12.6562 13.5156 13.043 13.1289L20.6895 5.56152C20.3643 5.24512 19.7578 5.0957 18.8877 5.0957H4.7373C3.99902 5.0957 3.48047 5.23633 3.19043 5.52637L10.8809 13.1289C11.2588 13.5068 11.5928 13.6826 11.9619 13.6826ZM2.46094 18.8242L8.6748 12.6807L2.44336 6.53711C2.31152 6.7832 2.24121 7.20508 2.24121 7.81152V17.5146C2.24121 18.1387 2.31152 18.5781 2.46094 18.8242ZM21.4365 18.8154C21.5771 18.5605 21.6475 18.1299 21.6475 17.5146V7.81152C21.6475 7.22266 21.5771 6.80078 21.4541 6.56348L15.2402 12.6807L21.4365 18.8154ZM5.00098 20.2393H19.1514C19.8896 20.2393 20.3994 20.0986 20.6895 19.8174L14.3525 13.542L13.7725 14.1309C13.166 14.7109 12.5947 14.9746 11.9619 14.9746C11.3203 14.9746 10.749 14.7109 10.1514 14.1309L9.5625 13.542L3.24316 19.8086C3.57715 20.0986 4.15723 20.2393 5.00098 20.2393Z" fill="white"/>
</g>
</svg>
